%TF.GenerationSoftware,KiCad,Pcbnew,7.0.7+dfsg-1*%
%TF.CreationDate,2024-02-18T13:39:17+01:00*%
%TF.ProjectId,test23,74657374-3233-42e6-9b69-6361645f7063,rev?*%
%TF.SameCoordinates,Original*%
%TF.FileFunction,Copper,L2,Bot*%
%TF.FilePolarity,Positive*%
%FSLAX46Y46*%
G04 Gerber Fmt 4.6, Leading zero omitted, Abs format (unit mm)*
G04 Created by KiCad (PCBNEW 7.0.7+dfsg-1) date 2024-02-18 13:39:17*
%MOMM*%
%LPD*%
G01*
G04 APERTURE LIST*
G04 Aperture macros list*
%AMRoundRect*
0 Rectangle with rounded corners*
0 $1 Rounding radius*
0 $2 $3 $4 $5 $6 $7 $8 $9 X,Y pos of 4 corners*
0 Add a 4 corners polygon primitive as box body*
4,1,4,$2,$3,$4,$5,$6,$7,$8,$9,$2,$3,0*
0 Add four circle primitives for the rounded corners*
1,1,$1+$1,$2,$3*
1,1,$1+$1,$4,$5*
1,1,$1+$1,$6,$7*
1,1,$1+$1,$8,$9*
0 Add four rect primitives between the rounded corners*
20,1,$1+$1,$2,$3,$4,$5,0*
20,1,$1+$1,$4,$5,$6,$7,0*
20,1,$1+$1,$6,$7,$8,$9,0*
20,1,$1+$1,$8,$9,$2,$3,0*%
G04 Aperture macros list end*
%TA.AperFunction,ComponentPad*%
%ADD10R,3.000000X3.000000*%
%TD*%
%TA.AperFunction,ComponentPad*%
%ADD11C,3.000000*%
%TD*%
%TA.AperFunction,ComponentPad*%
%ADD12R,1.800000X1.800000*%
%TD*%
%TA.AperFunction,ComponentPad*%
%ADD13C,1.800000*%
%TD*%
%TA.AperFunction,ComponentPad*%
%ADD14RoundRect,0.750000X0.750000X-1.250000X0.750000X1.250000X-0.750000X1.250000X-0.750000X-1.250000X0*%
%TD*%
%TA.AperFunction,ComponentPad*%
%ADD15R,1.980000X3.960000*%
%TD*%
%TA.AperFunction,ComponentPad*%
%ADD16O,1.980000X3.960000*%
%TD*%
%TA.AperFunction,ViaPad*%
%ADD17C,1.800000*%
%TD*%
%TA.AperFunction,Conductor*%
%ADD18C,1.250000*%
%TD*%
G04 APERTURE END LIST*
D10*
%TO.P,BT1,1,+*%
%TO.N,V1*%
X147509999Y-77970001D03*
D11*
%TO.P,BT1,2,-*%
%TO.N,VGND*%
X147509999Y-57480001D03*
%TD*%
D12*
%TO.P,RV1,1,1*%
%TO.N,V1*%
X164120000Y-65200000D03*
D13*
%TO.P,RV1,2,2*%
%TO.N,V2*%
X166620000Y-65200000D03*
%TO.P,RV1,3,3*%
%TO.N,VGND*%
X169120000Y-65200000D03*
D14*
%TO.P,RV1,MP*%
X162220000Y-58200000D03*
X171020000Y-58200000D03*
%TD*%
D15*
%TO.P,J1,1,Pin_1*%
%TO.N,V2*%
X167450000Y-73610000D03*
D16*
%TO.P,J1,2,Pin_2*%
%TO.N,VGND*%
X162450000Y-73610000D03*
%TD*%
D17*
%TO.N,VGND*%
X155820000Y-52450000D03*
X137970000Y-52980000D03*
X171810000Y-75810000D03*
X139040000Y-75910000D03*
X155020000Y-76020000D03*
%TD*%
D18*
%TO.N,V1*%
X147509999Y-77970001D02*
X147509999Y-72650001D01*
X147509999Y-72650001D02*
X154960000Y-65200000D01*
X154960000Y-65200000D02*
X164120000Y-65200000D01*
%TO.N,V2*%
X167450000Y-73610000D02*
X167450000Y-71190000D01*
X167450000Y-71190000D02*
X166620000Y-70360000D01*
X166620000Y-70360000D02*
X166620000Y-65200000D01*
%TD*%
%TA.AperFunction,Conductor*%
%TO.N,VGND*%
G36*
X173622539Y-50670185D02*
G01*
X173668294Y-50722989D01*
X173679500Y-50774500D01*
X173679500Y-80546194D01*
X173659815Y-80613233D01*
X173607011Y-80658988D01*
X173555694Y-80670194D01*
X135708462Y-80729500D01*
X135574500Y-80729500D01*
X135507461Y-80709815D01*
X135461706Y-80657011D01*
X135450500Y-80605500D01*
X135450500Y-79517871D01*
X145509499Y-79517871D01*
X145509500Y-79517877D01*
X145515907Y-79577484D01*
X145566201Y-79712329D01*
X145566205Y-79712336D01*
X145652451Y-79827545D01*
X145652454Y-79827548D01*
X145767663Y-79913794D01*
X145767670Y-79913798D01*
X145902516Y-79964092D01*
X145902515Y-79964092D01*
X145909443Y-79964836D01*
X145962126Y-79970501D01*
X149057871Y-79970500D01*
X149117482Y-79964092D01*
X149252330Y-79913797D01*
X149367545Y-79827547D01*
X149453795Y-79712332D01*
X149504090Y-79577484D01*
X149510499Y-79517874D01*
X149510498Y-76422129D01*
X149504090Y-76362518D01*
X149453795Y-76227670D01*
X149453794Y-76227669D01*
X149453792Y-76227665D01*
X149367546Y-76112456D01*
X149367543Y-76112453D01*
X149252334Y-76026207D01*
X149252327Y-76026203D01*
X149117481Y-75975909D01*
X149117482Y-75975909D01*
X149057882Y-75969502D01*
X149057880Y-75969501D01*
X149057872Y-75969501D01*
X149057864Y-75969501D01*
X148759499Y-75969501D01*
X148692460Y-75949816D01*
X148646705Y-75897012D01*
X148635499Y-75845501D01*
X148635499Y-73359999D01*
X160959999Y-73359999D01*
X160960000Y-73360000D01*
X161673593Y-73360000D01*
X161740632Y-73379685D01*
X161786387Y-73432489D01*
X161796331Y-73501647D01*
X161793989Y-73513677D01*
X161790000Y-73529859D01*
X161790000Y-73690140D01*
X161793989Y-73706323D01*
X161790921Y-73776125D01*
X161750603Y-73833188D01*
X161685834Y-73859394D01*
X161673593Y-73860000D01*
X160960000Y-73860000D01*
X160960000Y-74661631D01*
X160975284Y-74846090D01*
X161035901Y-75085460D01*
X161135092Y-75311591D01*
X161270148Y-75518311D01*
X161437394Y-75699988D01*
X161437398Y-75699991D01*
X161632245Y-75851647D01*
X161632251Y-75851651D01*
X161849421Y-75969178D01*
X161849429Y-75969181D01*
X162082970Y-76049356D01*
X162199999Y-76068885D01*
X162200000Y-76068884D01*
X162200000Y-74384458D01*
X162219685Y-74317419D01*
X162272489Y-74271664D01*
X162338944Y-74261362D01*
X162402297Y-74269054D01*
X162410080Y-74270000D01*
X162410081Y-74270000D01*
X162489920Y-74270000D01*
X162497702Y-74269054D01*
X162561055Y-74261362D01*
X162629975Y-74272822D01*
X162681762Y-74319725D01*
X162700000Y-74384458D01*
X162700000Y-76068885D01*
X162817029Y-76049356D01*
X163050570Y-75969181D01*
X163050578Y-75969178D01*
X163267748Y-75851651D01*
X163267754Y-75851647D01*
X163462601Y-75699991D01*
X163462605Y-75699988D01*
X163629851Y-75518311D01*
X163764907Y-75311591D01*
X163864098Y-75085460D01*
X163924715Y-74846090D01*
X163940000Y-74661631D01*
X163940000Y-73860000D01*
X163226407Y-73860000D01*
X163159368Y-73840315D01*
X163113613Y-73787511D01*
X163103669Y-73718353D01*
X163106011Y-73706323D01*
X163107349Y-73700891D01*
X163110000Y-73690138D01*
X163110000Y-73529862D01*
X163106010Y-73513677D01*
X163109079Y-73443875D01*
X163149397Y-73386812D01*
X163214166Y-73360606D01*
X163226407Y-73360000D01*
X163940000Y-73360000D01*
X163940000Y-72558369D01*
X163924715Y-72373909D01*
X163864098Y-72134539D01*
X163764907Y-71908408D01*
X163629851Y-71701688D01*
X163462605Y-71520011D01*
X163462601Y-71520008D01*
X163267754Y-71368352D01*
X163267748Y-71368348D01*
X163050578Y-71250821D01*
X163050570Y-71250818D01*
X162817029Y-71170643D01*
X162700000Y-71151114D01*
X162700000Y-72835541D01*
X162680315Y-72902580D01*
X162627511Y-72948335D01*
X162561053Y-72958637D01*
X162489922Y-72950000D01*
X162489919Y-72950000D01*
X162410081Y-72950000D01*
X162410078Y-72950000D01*
X162338947Y-72958637D01*
X162270023Y-72947177D01*
X162218237Y-72900273D01*
X162200000Y-72835541D01*
X162200000Y-71151114D01*
X162199999Y-71151114D01*
X162082970Y-71170643D01*
X161849429Y-71250818D01*
X161849421Y-71250821D01*
X161632251Y-71368348D01*
X161632245Y-71368352D01*
X161437398Y-71520008D01*
X161437394Y-71520011D01*
X161270148Y-71701688D01*
X161135092Y-71908408D01*
X161035901Y-72134539D01*
X160975284Y-72373909D01*
X160960000Y-72558369D01*
X160959999Y-73359999D01*
X148635499Y-73359999D01*
X148635499Y-73167560D01*
X148655184Y-73100521D01*
X148671818Y-73079879D01*
X155389878Y-66361819D01*
X155451201Y-66328334D01*
X155477559Y-66325500D01*
X162701535Y-66325500D01*
X162768574Y-66345185D01*
X162800800Y-66375187D01*
X162862454Y-66457546D01*
X162908643Y-66492123D01*
X162977664Y-66543793D01*
X162977671Y-66543797D01*
X163112517Y-66594091D01*
X163112516Y-66594091D01*
X163119444Y-66594835D01*
X163172127Y-66600500D01*
X165067872Y-66600499D01*
X165127483Y-66594091D01*
X165262331Y-66543796D01*
X165296189Y-66518449D01*
X165361652Y-66494032D01*
X165429925Y-66508883D01*
X165479331Y-66558287D01*
X165494500Y-66617716D01*
X165494500Y-70255667D01*
X165492783Y-70276230D01*
X165492261Y-70279334D01*
X165492260Y-70279341D01*
X165494500Y-70373427D01*
X165494500Y-70413613D01*
X165495563Y-70424763D01*
X165495826Y-70429176D01*
X165497268Y-70489703D01*
X165497376Y-70494226D01*
X165505185Y-70530127D01*
X165506319Y-70537398D01*
X165509317Y-70568794D01*
X165509812Y-70573972D01*
X165528141Y-70636400D01*
X165529235Y-70640686D01*
X165543067Y-70704262D01*
X165543069Y-70704269D01*
X165557525Y-70738025D01*
X165560022Y-70744970D01*
X165570368Y-70780207D01*
X165570368Y-70780208D01*
X165600185Y-70838047D01*
X165602072Y-70842051D01*
X165627679Y-70901850D01*
X165648265Y-70932265D01*
X165652032Y-70938613D01*
X165668861Y-70971259D01*
X165694723Y-71004144D01*
X165709087Y-71022409D01*
X165711681Y-71025963D01*
X165736196Y-71062183D01*
X165748159Y-71079858D01*
X165774128Y-71105827D01*
X165779027Y-71111346D01*
X165788218Y-71123033D01*
X165796483Y-71133543D01*
X165801733Y-71140218D01*
X165850906Y-71182827D01*
X165854146Y-71185844D01*
X165970657Y-71302355D01*
X166004142Y-71363678D01*
X165999158Y-71433368D01*
X165965909Y-71522514D01*
X165965908Y-71522516D01*
X165959501Y-71582116D01*
X165959501Y-71582123D01*
X165959500Y-71582135D01*
X165959500Y-75637870D01*
X165959501Y-75637876D01*
X165965908Y-75697483D01*
X166016202Y-75832328D01*
X166016206Y-75832335D01*
X166102452Y-75947544D01*
X166102455Y-75947547D01*
X166217664Y-76033793D01*
X166217671Y-76033797D01*
X166352517Y-76084091D01*
X166352516Y-76084091D01*
X166359444Y-76084835D01*
X166412127Y-76090500D01*
X168487872Y-76090499D01*
X168547483Y-76084091D01*
X168682331Y-76033796D01*
X168797546Y-75947546D01*
X168883796Y-75832331D01*
X168934091Y-75697483D01*
X168940500Y-75637873D01*
X168940499Y-71582128D01*
X168934091Y-71522517D01*
X168933156Y-71520011D01*
X168883797Y-71387671D01*
X168883793Y-71387664D01*
X168797547Y-71272455D01*
X168797544Y-71272452D01*
X168682334Y-71186205D01*
X168653405Y-71175415D01*
X168597472Y-71133543D01*
X168573057Y-71068078D01*
X168572777Y-71062206D01*
X168572624Y-71055774D01*
X168572623Y-71055769D01*
X168572623Y-71055766D01*
X168564816Y-71019885D01*
X168563679Y-71012599D01*
X168560188Y-70976029D01*
X168541850Y-70913579D01*
X168540765Y-70909327D01*
X168526934Y-70845741D01*
X168512476Y-70811980D01*
X168509978Y-70805031D01*
X168499632Y-70769793D01*
X168499631Y-70769791D01*
X168469822Y-70711971D01*
X168467935Y-70707966D01*
X168442323Y-70648156D01*
X168442321Y-70648151D01*
X168421730Y-70617728D01*
X168417973Y-70611397D01*
X168401138Y-70578741D01*
X168397387Y-70573971D01*
X168360921Y-70527600D01*
X168358310Y-70524025D01*
X168321848Y-70470151D01*
X168321841Y-70470143D01*
X168295862Y-70444164D01*
X168290971Y-70438653D01*
X168283518Y-70429176D01*
X168268268Y-70409783D01*
X168268266Y-70409781D01*
X168219093Y-70367172D01*
X168215853Y-70364155D01*
X167781819Y-69930121D01*
X167748334Y-69868798D01*
X167745500Y-69842440D01*
X167745500Y-66074782D01*
X167765185Y-66007743D01*
X167765677Y-66006983D01*
X167766475Y-66005761D01*
X167819612Y-65960392D01*
X167888841Y-65950954D01*
X167952183Y-65980442D01*
X167966913Y-65997437D01*
X167968811Y-65997634D01*
X168511050Y-65455395D01*
X168572373Y-65421910D01*
X168642064Y-65426894D01*
X168697998Y-65468765D01*
X168703039Y-65476025D01*
X168703048Y-65476039D01*
X168738239Y-65530798D01*
X168853602Y-65630759D01*
X168851293Y-65633422D01*
X168886006Y-65673499D01*
X168895935Y-65742660D01*
X168866898Y-65806210D01*
X168860882Y-65812669D01*
X168321199Y-66352351D01*
X168351650Y-66376050D01*
X168555697Y-66486476D01*
X168555706Y-66486479D01*
X168775139Y-66561811D01*
X169003993Y-66600000D01*
X169236007Y-66600000D01*
X169464860Y-66561811D01*
X169684293Y-66486479D01*
X169684302Y-66486476D01*
X169888350Y-66376050D01*
X169918798Y-66352351D01*
X169379116Y-65812669D01*
X169345631Y-65751346D01*
X169350615Y-65681654D01*
X169387641Y-65632193D01*
X169386398Y-65630759D01*
X169393100Y-65624952D01*
X169501761Y-65530798D01*
X169536954Y-65476037D01*
X169589755Y-65430283D01*
X169658914Y-65420339D01*
X169722470Y-65449363D01*
X169728949Y-65455396D01*
X170271186Y-65997634D01*
X170355484Y-65868606D01*
X170448682Y-65656135D01*
X170505638Y-65431218D01*
X170524798Y-65200005D01*
X170524798Y-65199994D01*
X170505638Y-64968781D01*
X170448682Y-64743864D01*
X170355483Y-64531390D01*
X170271186Y-64402364D01*
X169728949Y-64944602D01*
X169667626Y-64978087D01*
X169597934Y-64973103D01*
X169542001Y-64931231D01*
X169536953Y-64923961D01*
X169501761Y-64869202D01*
X169386398Y-64769241D01*
X169388708Y-64766574D01*
X169354005Y-64726528D01*
X169344058Y-64657370D01*
X169373080Y-64593813D01*
X169379116Y-64587330D01*
X169918799Y-64047647D01*
X169888349Y-64023949D01*
X169684302Y-63913523D01*
X169684293Y-63913520D01*
X169464860Y-63838188D01*
X169236007Y-63800000D01*
X169003993Y-63800000D01*
X168775139Y-63838188D01*
X168555706Y-63913520D01*
X168555698Y-63913523D01*
X168351644Y-64023952D01*
X168321200Y-64047646D01*
X168321200Y-64047647D01*
X168860883Y-64587330D01*
X168894368Y-64648653D01*
X168889384Y-64718345D01*
X168852357Y-64767805D01*
X168853602Y-64769241D01*
X168738238Y-64869202D01*
X168703046Y-64923962D01*
X168650242Y-64969717D01*
X168581083Y-64979660D01*
X168517528Y-64950634D01*
X168511050Y-64944603D01*
X167968811Y-64402364D01*
X167964030Y-64402860D01*
X167920960Y-64439617D01*
X167851729Y-64449041D01*
X167788393Y-64419539D01*
X167766489Y-64394260D01*
X167728983Y-64336852D01*
X167728980Y-64336849D01*
X167728979Y-64336847D01*
X167571784Y-64166087D01*
X167571779Y-64166083D01*
X167571777Y-64166081D01*
X167388634Y-64023535D01*
X167388628Y-64023531D01*
X167184504Y-63913064D01*
X167184495Y-63913061D01*
X166964984Y-63837702D01*
X166774450Y-63805908D01*
X166736049Y-63799500D01*
X166503951Y-63799500D01*
X166465550Y-63805908D01*
X166275015Y-63837702D01*
X166055504Y-63913061D01*
X166055495Y-63913064D01*
X165851372Y-64023531D01*
X165674436Y-64161245D01*
X165609442Y-64186887D01*
X165540902Y-64173320D01*
X165490577Y-64124852D01*
X165482092Y-64106723D01*
X165463798Y-64057673D01*
X165463793Y-64057664D01*
X165377547Y-63942455D01*
X165377544Y-63942452D01*
X165262335Y-63856206D01*
X165262328Y-63856202D01*
X165127482Y-63805908D01*
X165127483Y-63805908D01*
X165067883Y-63799501D01*
X165067881Y-63799500D01*
X165067873Y-63799500D01*
X165067864Y-63799500D01*
X163172129Y-63799500D01*
X163172123Y-63799501D01*
X163112516Y-63805908D01*
X162977671Y-63856202D01*
X162977664Y-63856206D01*
X162862456Y-63942452D01*
X162862455Y-63942453D01*
X162862454Y-63942454D01*
X162801760Y-64023531D01*
X162800802Y-64024811D01*
X162744868Y-64066682D01*
X162701535Y-64074500D01*
X155064331Y-64074500D01*
X155043768Y-64072783D01*
X155042591Y-64072585D01*
X155040659Y-64072260D01*
X155040657Y-64072260D01*
X154946572Y-64074500D01*
X154906382Y-64074500D01*
X154902626Y-64074858D01*
X154895236Y-64075563D01*
X154890824Y-64075826D01*
X154828201Y-64077318D01*
X154825774Y-64077376D01*
X154825772Y-64077376D01*
X154825766Y-64077377D01*
X154804224Y-64082063D01*
X154789874Y-64085185D01*
X154782597Y-64086319D01*
X154746029Y-64089812D01*
X154683607Y-64108140D01*
X154679319Y-64109234D01*
X154615744Y-64123065D01*
X154615736Y-64123068D01*
X154581978Y-64137524D01*
X154575034Y-64140020D01*
X154539792Y-64150368D01*
X154539791Y-64150368D01*
X154481964Y-64180180D01*
X154477961Y-64182066D01*
X154418149Y-64207679D01*
X154387731Y-64228266D01*
X154381389Y-64232029D01*
X154348741Y-64248862D01*
X154348734Y-64248866D01*
X154297600Y-64289077D01*
X154294028Y-64291685D01*
X154240139Y-64328160D01*
X154214165Y-64354134D01*
X154208649Y-64359030D01*
X154179784Y-64381730D01*
X154179782Y-64381732D01*
X154137171Y-64430906D01*
X154134156Y-64434145D01*
X146787922Y-71780379D01*
X146772182Y-71793695D01*
X146769603Y-71795531D01*
X146769600Y-71795534D01*
X146737898Y-71828781D01*
X146704651Y-71863651D01*
X146676236Y-71892066D01*
X146676231Y-71892072D01*
X146669112Y-71900693D01*
X146666178Y-71904000D01*
X146621278Y-71951090D01*
X146621266Y-71951106D01*
X146601411Y-71981999D01*
X146597062Y-71987955D01*
X146573682Y-72016272D01*
X146573677Y-72016279D01*
X146542495Y-72073384D01*
X146540237Y-72077190D01*
X146505064Y-72131920D01*
X146505062Y-72131923D01*
X146491410Y-72166022D01*
X146488267Y-72172694D01*
X146470667Y-72204927D01*
X146470662Y-72204938D01*
X146450850Y-72266913D01*
X146449354Y-72271077D01*
X146425178Y-72331463D01*
X146425177Y-72331466D01*
X146418225Y-72367534D01*
X146416401Y-72374684D01*
X146405216Y-72409669D01*
X146397490Y-72474284D01*
X146396808Y-72478656D01*
X146384499Y-72542531D01*
X146384499Y-72579253D01*
X146384060Y-72586620D01*
X146379699Y-72623090D01*
X146379699Y-72623095D01*
X146384341Y-72687996D01*
X146384499Y-72692421D01*
X146384499Y-75845501D01*
X146364814Y-75912540D01*
X146312010Y-75958295D01*
X146260499Y-75969501D01*
X145962129Y-75969501D01*
X145962122Y-75969502D01*
X145902515Y-75975909D01*
X145767670Y-76026203D01*
X145767663Y-76026207D01*
X145652454Y-76112453D01*
X145652451Y-76112456D01*
X145566205Y-76227665D01*
X145566201Y-76227672D01*
X145515907Y-76362518D01*
X145509500Y-76422117D01*
X145509500Y-76422124D01*
X145509499Y-76422136D01*
X145509499Y-79517871D01*
X135450500Y-79517871D01*
X135450500Y-57480002D01*
X145504890Y-57480002D01*
X145525299Y-57765363D01*
X145586108Y-58044896D01*
X145686090Y-58312959D01*
X145823190Y-58564039D01*
X145823195Y-58564047D01*
X145929881Y-58706562D01*
X145929882Y-58706563D01*
X146721666Y-57914779D01*
X146782989Y-57881294D01*
X146852680Y-57886278D01*
X146908614Y-57928150D01*
X146908810Y-57928412D01*
X146960755Y-57998186D01*
X147066222Y-58086684D01*
X147104924Y-58144855D01*
X147106032Y-58214716D01*
X147074197Y-58269354D01*
X146283435Y-59060115D01*
X146283435Y-59060116D01*
X146425959Y-59166808D01*
X146425960Y-59166809D01*
X146677041Y-59303909D01*
X146677040Y-59303909D01*
X146945103Y-59403891D01*
X147224636Y-59464700D01*
X147509998Y-59485110D01*
X147510000Y-59485110D01*
X147795361Y-59464700D01*
X148074894Y-59403891D01*
X148342957Y-59303909D01*
X148594046Y-59166804D01*
X148736560Y-59060117D01*
X148736561Y-59060116D01*
X147945874Y-58269429D01*
X147912389Y-58208106D01*
X147917373Y-58138414D01*
X147959245Y-58082481D01*
X147965397Y-58078160D01*
X147995372Y-58058446D01*
X148115687Y-57930919D01*
X148115686Y-57930919D01*
X148120644Y-57925665D01*
X148121841Y-57926794D01*
X148170628Y-57890053D01*
X148240305Y-57884867D01*
X148301725Y-57918174D01*
X149090114Y-58706563D01*
X149090115Y-58706562D01*
X149196802Y-58564048D01*
X149333907Y-58312959D01*
X149433889Y-58044896D01*
X149454532Y-57950000D01*
X160220000Y-57950000D01*
X161196000Y-57950000D01*
X161263039Y-57969685D01*
X161308794Y-58022489D01*
X161320000Y-58074000D01*
X161320000Y-58326000D01*
X161300315Y-58393039D01*
X161247511Y-58438794D01*
X161196000Y-58450000D01*
X160220001Y-58450000D01*
X160220001Y-59514192D01*
X160230400Y-59646332D01*
X160285377Y-59864519D01*
X160378428Y-60069374D01*
X160378431Y-60069380D01*
X160506559Y-60254323D01*
X160506569Y-60254335D01*
X160665664Y-60413430D01*
X160665676Y-60413440D01*
X160850619Y-60541568D01*
X160850625Y-60541571D01*
X161055480Y-60634622D01*
X161273667Y-60689599D01*
X161405807Y-60700000D01*
X161969999Y-60699999D01*
X161970000Y-60699998D01*
X161970000Y-59370094D01*
X161989685Y-59303055D01*
X162042489Y-59257300D01*
X162111647Y-59247356D01*
X162119750Y-59248797D01*
X162125406Y-59250000D01*
X162125411Y-59250000D01*
X162314589Y-59250000D01*
X162314594Y-59250000D01*
X162320219Y-59248804D01*
X162389883Y-59254119D01*
X162445618Y-59296254D01*
X162469725Y-59361833D01*
X162470000Y-59370094D01*
X162470000Y-60699999D01*
X163034192Y-60699999D01*
X163166332Y-60689599D01*
X163384519Y-60634622D01*
X163589374Y-60541571D01*
X163589380Y-60541568D01*
X163774323Y-60413440D01*
X163774335Y-60413430D01*
X163933430Y-60254335D01*
X163933440Y-60254323D01*
X164061568Y-60069380D01*
X164061571Y-60069374D01*
X164154622Y-59864519D01*
X164209599Y-59646332D01*
X164220000Y-59514194D01*
X164220000Y-58450000D01*
X163244000Y-58450000D01*
X163176961Y-58430315D01*
X163131206Y-58377511D01*
X163120000Y-58326000D01*
X163120000Y-58074000D01*
X163139685Y-58006961D01*
X163192489Y-57961206D01*
X163244000Y-57950000D01*
X164219999Y-57950000D01*
X169020000Y-57950000D01*
X169996000Y-57950000D01*
X170063039Y-57969685D01*
X170108794Y-58022489D01*
X170120000Y-58074000D01*
X170120000Y-58326000D01*
X170100315Y-58393039D01*
X170047511Y-58438794D01*
X169996000Y-58450000D01*
X169020001Y-58450000D01*
X169020001Y-59514192D01*
X169030400Y-59646332D01*
X169085377Y-59864519D01*
X169178428Y-60069374D01*
X169178431Y-60069380D01*
X169306559Y-60254323D01*
X169306569Y-60254335D01*
X169465664Y-60413430D01*
X169465676Y-60413440D01*
X169650619Y-60541568D01*
X169650625Y-60541571D01*
X169855480Y-60634622D01*
X170073667Y-60689599D01*
X170205807Y-60700000D01*
X170769999Y-60699999D01*
X170770000Y-60699998D01*
X170770000Y-59370094D01*
X170789685Y-59303055D01*
X170842489Y-59257300D01*
X170911647Y-59247356D01*
X170919750Y-59248797D01*
X170925406Y-59250000D01*
X170925411Y-59250000D01*
X171114589Y-59250000D01*
X171114594Y-59250000D01*
X171120219Y-59248804D01*
X171189883Y-59254119D01*
X171245618Y-59296254D01*
X171269725Y-59361833D01*
X171270000Y-59370094D01*
X171270000Y-60699999D01*
X171834192Y-60699999D01*
X171966332Y-60689599D01*
X172184519Y-60634622D01*
X172389374Y-60541571D01*
X172389380Y-60541568D01*
X172574323Y-60413440D01*
X172574335Y-60413430D01*
X172733430Y-60254335D01*
X172733440Y-60254323D01*
X172861568Y-60069380D01*
X172861571Y-60069374D01*
X172954622Y-59864519D01*
X173009599Y-59646332D01*
X173020000Y-59514194D01*
X173020000Y-58450000D01*
X172044000Y-58450000D01*
X171976961Y-58430315D01*
X171931206Y-58377511D01*
X171920000Y-58326000D01*
X171920000Y-58074000D01*
X171939685Y-58006961D01*
X171992489Y-57961206D01*
X172044000Y-57950000D01*
X173019999Y-57950000D01*
X173019999Y-56885808D01*
X173009599Y-56753667D01*
X172954622Y-56535480D01*
X172861571Y-56330625D01*
X172861568Y-56330619D01*
X172733440Y-56145676D01*
X172733430Y-56145664D01*
X172574335Y-55986569D01*
X172574323Y-55986559D01*
X172389380Y-55858431D01*
X172389374Y-55858428D01*
X172184519Y-55765377D01*
X171966332Y-55710400D01*
X171834194Y-55700000D01*
X171270000Y-55700000D01*
X171270000Y-57029905D01*
X171250315Y-57096944D01*
X171197511Y-57142699D01*
X171128353Y-57152643D01*
X171120225Y-57151197D01*
X171114594Y-57150000D01*
X170925406Y-57150000D01*
X170919775Y-57151197D01*
X170850108Y-57145877D01*
X170794377Y-57103737D01*
X170770275Y-57038156D01*
X170770000Y-57029905D01*
X170770000Y-55700000D01*
X170769999Y-55700000D01*
X170205808Y-55700001D01*
X170073667Y-55710400D01*
X169855480Y-55765377D01*
X169650625Y-55858428D01*
X169650619Y-55858431D01*
X169465676Y-55986559D01*
X169465664Y-55986569D01*
X169306569Y-56145664D01*
X169306559Y-56145676D01*
X169178431Y-56330619D01*
X169178428Y-56330625D01*
X169085377Y-56535480D01*
X169030400Y-56753667D01*
X169020000Y-56885806D01*
X169020000Y-57950000D01*
X164219999Y-57950000D01*
X164219999Y-56885808D01*
X164209599Y-56753667D01*
X164154622Y-56535480D01*
X164061571Y-56330625D01*
X164061568Y-56330619D01*
X163933440Y-56145676D01*
X163933430Y-56145664D01*
X163774335Y-55986569D01*
X163774323Y-55986559D01*
X163589380Y-55858431D01*
X163589374Y-55858428D01*
X163384519Y-55765377D01*
X163166332Y-55710400D01*
X163034194Y-55700000D01*
X162470000Y-55700000D01*
X162470000Y-57029905D01*
X162450315Y-57096944D01*
X162397511Y-57142699D01*
X162328353Y-57152643D01*
X162320225Y-57151197D01*
X162314594Y-57150000D01*
X162125406Y-57150000D01*
X162119775Y-57151197D01*
X162050108Y-57145877D01*
X161994377Y-57103737D01*
X161970275Y-57038156D01*
X161970000Y-57029905D01*
X161970000Y-55700000D01*
X161969999Y-55700000D01*
X161405808Y-55700001D01*
X161273667Y-55710400D01*
X161055480Y-55765377D01*
X160850625Y-55858428D01*
X160850619Y-55858431D01*
X160665676Y-55986559D01*
X160665664Y-55986569D01*
X160506569Y-56145664D01*
X160506559Y-56145676D01*
X160378431Y-56330619D01*
X160378428Y-56330625D01*
X160285377Y-56535480D01*
X160230400Y-56753667D01*
X160220000Y-56885806D01*
X160220000Y-57950000D01*
X149454532Y-57950000D01*
X149494698Y-57765363D01*
X149515108Y-57480002D01*
X149515108Y-57479999D01*
X149494698Y-57194638D01*
X149433889Y-56915105D01*
X149333907Y-56647042D01*
X149196807Y-56395962D01*
X149196806Y-56395961D01*
X149090114Y-56253437D01*
X149090113Y-56253437D01*
X148298330Y-57045221D01*
X148237007Y-57078706D01*
X148167315Y-57073722D01*
X148111382Y-57031850D01*
X148111290Y-57031727D01*
X148059243Y-56961816D01*
X147953772Y-56873314D01*
X147915071Y-56815145D01*
X147913963Y-56745284D01*
X147945798Y-56690646D01*
X148736561Y-55899884D01*
X148736560Y-55899883D01*
X148594045Y-55793197D01*
X148594037Y-55793192D01*
X148342956Y-55656092D01*
X148342957Y-55656092D01*
X148074894Y-55556110D01*
X147795361Y-55495301D01*
X147510000Y-55474892D01*
X147509998Y-55474892D01*
X147224636Y-55495301D01*
X146945103Y-55556110D01*
X146677040Y-55656092D01*
X146425960Y-55793192D01*
X146425952Y-55793197D01*
X146283435Y-55899883D01*
X146283435Y-55899884D01*
X147074123Y-56690572D01*
X147107608Y-56751895D01*
X147102624Y-56821587D01*
X147060752Y-56877520D01*
X147054582Y-56881853D01*
X147024626Y-56901555D01*
X146899354Y-57034336D01*
X146898162Y-57033211D01*
X146849323Y-57069963D01*
X146779645Y-57075123D01*
X146718237Y-57041792D01*
X145929882Y-56253437D01*
X145929881Y-56253437D01*
X145823195Y-56395954D01*
X145823190Y-56395962D01*
X145686090Y-56647042D01*
X145586108Y-56915105D01*
X145525299Y-57194638D01*
X145504890Y-57479999D01*
X145504890Y-57480002D01*
X135450500Y-57480002D01*
X135450500Y-50774500D01*
X135470185Y-50707461D01*
X135522989Y-50661706D01*
X135574500Y-50650500D01*
X173555500Y-50650500D01*
X173622539Y-50670185D01*
G37*
%TD.AperFunction*%
%TD*%
M02*
