%TF.GenerationSoftware,KiCad,Pcbnew,7.0.7+dfsg-1*%
%TF.CreationDate,2024-02-18T13:38:53+01:00*%
%TF.ProjectId,test23,74657374-3233-42e6-9b69-6361645f7063,rev?*%
%TF.SameCoordinates,Original*%
%TF.FileFunction,Drillmap*%
%TF.FilePolarity,Positive*%
%FSLAX45Y45*%
G04 Gerber Fmt 4.5, Leading zero omitted, Abs format (unit mm)*
G04 Created by KiCad (PCBNEW 7.0.7+dfsg-1) date 2024-02-18 13:38:53*
%MOMM*%
%LPD*%
G01*
G04 APERTURE LIST*
%ADD10C,0.100000*%
%ADD11C,0.200000*%
%ADD12C,0.132000*%
%ADD13C,0.140000*%
%ADD14C,0.150000*%
%ADD15C,0.180000*%
G04 APERTURE END LIST*
D10*
X13545000Y-5065000D02*
X17368000Y-5065000D01*
X17368000Y-8073000D01*
X13545000Y-8073000D01*
X13545000Y-5065000D01*
D11*
D10*
X16362000Y-6470000D02*
X16462000Y-6570000D01*
X16462000Y-6470000D02*
X16362000Y-6570000D01*
X16612000Y-6470000D02*
X16712000Y-6570000D01*
X16712000Y-6470000D02*
X16612000Y-6570000D01*
X16862000Y-6470000D02*
X16962000Y-6570000D01*
X16962000Y-6470000D02*
X16862000Y-6570000D01*
D12*
X16311000Y-7361000D02*
G75*
G03*
X16311000Y-7361000I-66000J0D01*
G01*
X16811000Y-7361000D02*
G75*
G03*
X16811000Y-7361000I-66000J0D01*
G01*
D13*
X13797000Y-5228000D02*
X13797000Y-5368000D01*
X13727000Y-5298000D02*
X13867000Y-5298000D01*
X13904000Y-7521000D02*
X13904000Y-7661000D01*
X13834000Y-7591000D02*
X13974000Y-7591000D01*
X15502000Y-7532000D02*
X15502000Y-7672000D01*
X15432000Y-7602000D02*
X15572000Y-7602000D01*
X15582000Y-5175000D02*
X15582000Y-5315000D01*
X15512000Y-5245000D02*
X15652000Y-5245000D01*
X17181000Y-7511000D02*
X17181000Y-7651000D01*
X17111000Y-7581000D02*
X17251000Y-7581000D01*
D14*
X14804033Y-5801034D02*
X14804033Y-5694967D01*
X14697966Y-5694967D01*
X14697966Y-5801034D01*
X14804033Y-5801034D01*
X14804033Y-7850034D02*
X14804033Y-7743967D01*
X14697966Y-7743967D01*
X14697966Y-7850034D01*
X14804033Y-7850034D01*
D15*
X16222000Y-5910000D02*
X16312000Y-5820000D01*
X16222000Y-5730000D01*
X16132000Y-5820000D01*
X16222000Y-5910000D01*
D11*
X16312000Y-5835000D02*
X16312000Y-5805000D01*
X16312000Y-5805000D02*
G75*
G03*
X16132000Y-5805000I-90000J0D01*
G01*
X16132000Y-5805000D02*
X16132000Y-5835000D01*
X16132000Y-5835000D02*
G75*
G03*
X16312000Y-5835000I90000J0D01*
G01*
D15*
X17102000Y-5910000D02*
X17192000Y-5820000D01*
X17102000Y-5730000D01*
X17012000Y-5820000D01*
X17102000Y-5910000D01*
D11*
X17192000Y-5835000D02*
X17192000Y-5805000D01*
X17192000Y-5805000D02*
G75*
G03*
X17012000Y-5805000I-90000J0D01*
G01*
X17012000Y-5805000D02*
X17012000Y-5835000D01*
X17012000Y-5835000D02*
G75*
G03*
X17192000Y-5835000I90000J0D01*
G01*
X13800777Y-8389484D02*
X13800777Y-8189484D01*
X13800777Y-8189484D02*
X13848396Y-8189484D01*
X13848396Y-8189484D02*
X13876967Y-8199008D01*
X13876967Y-8199008D02*
X13896015Y-8218055D01*
X13896015Y-8218055D02*
X13905539Y-8237103D01*
X13905539Y-8237103D02*
X13915062Y-8275198D01*
X13915062Y-8275198D02*
X13915062Y-8303769D01*
X13915062Y-8303769D02*
X13905539Y-8341865D01*
X13905539Y-8341865D02*
X13896015Y-8360912D01*
X13896015Y-8360912D02*
X13876967Y-8379960D01*
X13876967Y-8379960D02*
X13848396Y-8389484D01*
X13848396Y-8389484D02*
X13800777Y-8389484D01*
X14000777Y-8389484D02*
X14000777Y-8256150D01*
X14000777Y-8294246D02*
X14010301Y-8275198D01*
X14010301Y-8275198D02*
X14019824Y-8265674D01*
X14019824Y-8265674D02*
X14038872Y-8256150D01*
X14038872Y-8256150D02*
X14057920Y-8256150D01*
X14124586Y-8389484D02*
X14124586Y-8256150D01*
X14124586Y-8189484D02*
X14115062Y-8199008D01*
X14115062Y-8199008D02*
X14124586Y-8208531D01*
X14124586Y-8208531D02*
X14134110Y-8199008D01*
X14134110Y-8199008D02*
X14124586Y-8189484D01*
X14124586Y-8189484D02*
X14124586Y-8208531D01*
X14248396Y-8389484D02*
X14229348Y-8379960D01*
X14229348Y-8379960D02*
X14219824Y-8360912D01*
X14219824Y-8360912D02*
X14219824Y-8189484D01*
X14353158Y-8389484D02*
X14334110Y-8379960D01*
X14334110Y-8379960D02*
X14324586Y-8360912D01*
X14324586Y-8360912D02*
X14324586Y-8189484D01*
X14581729Y-8389484D02*
X14581729Y-8189484D01*
X14581729Y-8189484D02*
X14648396Y-8332341D01*
X14648396Y-8332341D02*
X14715062Y-8189484D01*
X14715062Y-8189484D02*
X14715062Y-8389484D01*
X14896015Y-8389484D02*
X14896015Y-8284722D01*
X14896015Y-8284722D02*
X14886491Y-8265674D01*
X14886491Y-8265674D02*
X14867443Y-8256150D01*
X14867443Y-8256150D02*
X14829348Y-8256150D01*
X14829348Y-8256150D02*
X14810301Y-8265674D01*
X14896015Y-8379960D02*
X14876967Y-8389484D01*
X14876967Y-8389484D02*
X14829348Y-8389484D01*
X14829348Y-8389484D02*
X14810301Y-8379960D01*
X14810301Y-8379960D02*
X14800777Y-8360912D01*
X14800777Y-8360912D02*
X14800777Y-8341865D01*
X14800777Y-8341865D02*
X14810301Y-8322817D01*
X14810301Y-8322817D02*
X14829348Y-8313293D01*
X14829348Y-8313293D02*
X14876967Y-8313293D01*
X14876967Y-8313293D02*
X14896015Y-8303769D01*
X14991253Y-8256150D02*
X14991253Y-8456150D01*
X14991253Y-8265674D02*
X15010301Y-8256150D01*
X15010301Y-8256150D02*
X15048396Y-8256150D01*
X15048396Y-8256150D02*
X15067443Y-8265674D01*
X15067443Y-8265674D02*
X15076967Y-8275198D01*
X15076967Y-8275198D02*
X15086491Y-8294246D01*
X15086491Y-8294246D02*
X15086491Y-8351388D01*
X15086491Y-8351388D02*
X15076967Y-8370436D01*
X15076967Y-8370436D02*
X15067443Y-8379960D01*
X15067443Y-8379960D02*
X15048396Y-8389484D01*
X15048396Y-8389484D02*
X15010301Y-8389484D01*
X15010301Y-8389484D02*
X14991253Y-8379960D01*
X15172205Y-8370436D02*
X15181729Y-8379960D01*
X15181729Y-8379960D02*
X15172205Y-8389484D01*
X15172205Y-8389484D02*
X15162682Y-8379960D01*
X15162682Y-8379960D02*
X15172205Y-8370436D01*
X15172205Y-8370436D02*
X15172205Y-8389484D01*
X15172205Y-8265674D02*
X15181729Y-8275198D01*
X15181729Y-8275198D02*
X15172205Y-8284722D01*
X15172205Y-8284722D02*
X15162682Y-8275198D01*
X15162682Y-8275198D02*
X15172205Y-8265674D01*
X15172205Y-8265674D02*
X15172205Y-8284722D01*
D10*
X13440000Y-8668000D02*
X13540000Y-8768000D01*
X13540000Y-8668000D02*
X13440000Y-8768000D01*
D11*
X13905539Y-8809484D02*
X13791253Y-8809484D01*
X13848396Y-8809484D02*
X13848396Y-8609484D01*
X13848396Y-8609484D02*
X13829348Y-8638055D01*
X13829348Y-8638055D02*
X13810301Y-8657103D01*
X13810301Y-8657103D02*
X13791253Y-8666627D01*
X13991253Y-8790436D02*
X14000777Y-8799960D01*
X14000777Y-8799960D02*
X13991253Y-8809484D01*
X13991253Y-8809484D02*
X13981729Y-8799960D01*
X13981729Y-8799960D02*
X13991253Y-8790436D01*
X13991253Y-8790436D02*
X13991253Y-8809484D01*
X14124586Y-8609484D02*
X14143634Y-8609484D01*
X14143634Y-8609484D02*
X14162682Y-8619008D01*
X14162682Y-8619008D02*
X14172205Y-8628531D01*
X14172205Y-8628531D02*
X14181729Y-8647579D01*
X14181729Y-8647579D02*
X14191253Y-8685674D01*
X14191253Y-8685674D02*
X14191253Y-8733293D01*
X14191253Y-8733293D02*
X14181729Y-8771389D01*
X14181729Y-8771389D02*
X14172205Y-8790436D01*
X14172205Y-8790436D02*
X14162682Y-8799960D01*
X14162682Y-8799960D02*
X14143634Y-8809484D01*
X14143634Y-8809484D02*
X14124586Y-8809484D01*
X14124586Y-8809484D02*
X14105539Y-8799960D01*
X14105539Y-8799960D02*
X14096015Y-8790436D01*
X14096015Y-8790436D02*
X14086491Y-8771389D01*
X14086491Y-8771389D02*
X14076967Y-8733293D01*
X14076967Y-8733293D02*
X14076967Y-8685674D01*
X14076967Y-8685674D02*
X14086491Y-8647579D01*
X14086491Y-8647579D02*
X14096015Y-8628531D01*
X14096015Y-8628531D02*
X14105539Y-8619008D01*
X14105539Y-8619008D02*
X14124586Y-8609484D01*
X14315062Y-8609484D02*
X14334110Y-8609484D01*
X14334110Y-8609484D02*
X14353158Y-8619008D01*
X14353158Y-8619008D02*
X14362682Y-8628531D01*
X14362682Y-8628531D02*
X14372205Y-8647579D01*
X14372205Y-8647579D02*
X14381729Y-8685674D01*
X14381729Y-8685674D02*
X14381729Y-8733293D01*
X14381729Y-8733293D02*
X14372205Y-8771389D01*
X14372205Y-8771389D02*
X14362682Y-8790436D01*
X14362682Y-8790436D02*
X14353158Y-8799960D01*
X14353158Y-8799960D02*
X14334110Y-8809484D01*
X14334110Y-8809484D02*
X14315062Y-8809484D01*
X14315062Y-8809484D02*
X14296015Y-8799960D01*
X14296015Y-8799960D02*
X14286491Y-8790436D01*
X14286491Y-8790436D02*
X14276967Y-8771389D01*
X14276967Y-8771389D02*
X14267443Y-8733293D01*
X14267443Y-8733293D02*
X14267443Y-8685674D01*
X14267443Y-8685674D02*
X14276967Y-8647579D01*
X14276967Y-8647579D02*
X14286491Y-8628531D01*
X14286491Y-8628531D02*
X14296015Y-8619008D01*
X14296015Y-8619008D02*
X14315062Y-8609484D01*
X14505539Y-8609484D02*
X14524586Y-8609484D01*
X14524586Y-8609484D02*
X14543634Y-8619008D01*
X14543634Y-8619008D02*
X14553158Y-8628531D01*
X14553158Y-8628531D02*
X14562682Y-8647579D01*
X14562682Y-8647579D02*
X14572205Y-8685674D01*
X14572205Y-8685674D02*
X14572205Y-8733293D01*
X14572205Y-8733293D02*
X14562682Y-8771389D01*
X14562682Y-8771389D02*
X14553158Y-8790436D01*
X14553158Y-8790436D02*
X14543634Y-8799960D01*
X14543634Y-8799960D02*
X14524586Y-8809484D01*
X14524586Y-8809484D02*
X14505539Y-8809484D01*
X14505539Y-8809484D02*
X14486491Y-8799960D01*
X14486491Y-8799960D02*
X14476967Y-8790436D01*
X14476967Y-8790436D02*
X14467443Y-8771389D01*
X14467443Y-8771389D02*
X14457920Y-8733293D01*
X14457920Y-8733293D02*
X14457920Y-8685674D01*
X14457920Y-8685674D02*
X14467443Y-8647579D01*
X14467443Y-8647579D02*
X14476967Y-8628531D01*
X14476967Y-8628531D02*
X14486491Y-8619008D01*
X14486491Y-8619008D02*
X14505539Y-8609484D01*
X14657920Y-8809484D02*
X14657920Y-8676150D01*
X14657920Y-8695198D02*
X14667443Y-8685674D01*
X14667443Y-8685674D02*
X14686491Y-8676150D01*
X14686491Y-8676150D02*
X14715063Y-8676150D01*
X14715063Y-8676150D02*
X14734110Y-8685674D01*
X14734110Y-8685674D02*
X14743634Y-8704722D01*
X14743634Y-8704722D02*
X14743634Y-8809484D01*
X14743634Y-8704722D02*
X14753158Y-8685674D01*
X14753158Y-8685674D02*
X14772205Y-8676150D01*
X14772205Y-8676150D02*
X14800777Y-8676150D01*
X14800777Y-8676150D02*
X14819824Y-8685674D01*
X14819824Y-8685674D02*
X14829348Y-8704722D01*
X14829348Y-8704722D02*
X14829348Y-8809484D01*
X14924586Y-8809484D02*
X14924586Y-8676150D01*
X14924586Y-8695198D02*
X14934110Y-8685674D01*
X14934110Y-8685674D02*
X14953158Y-8676150D01*
X14953158Y-8676150D02*
X14981729Y-8676150D01*
X14981729Y-8676150D02*
X15000777Y-8685674D01*
X15000777Y-8685674D02*
X15010301Y-8704722D01*
X15010301Y-8704722D02*
X15010301Y-8809484D01*
X15010301Y-8704722D02*
X15019824Y-8685674D01*
X15019824Y-8685674D02*
X15038872Y-8676150D01*
X15038872Y-8676150D02*
X15067443Y-8676150D01*
X15067443Y-8676150D02*
X15086491Y-8685674D01*
X15086491Y-8685674D02*
X15096015Y-8704722D01*
X15096015Y-8704722D02*
X15096015Y-8809484D01*
X15486491Y-8599960D02*
X15315063Y-8857103D01*
X15743634Y-8609484D02*
X15762682Y-8609484D01*
X15762682Y-8609484D02*
X15781729Y-8619008D01*
X15781729Y-8619008D02*
X15791253Y-8628531D01*
X15791253Y-8628531D02*
X15800777Y-8647579D01*
X15800777Y-8647579D02*
X15810301Y-8685674D01*
X15810301Y-8685674D02*
X15810301Y-8733293D01*
X15810301Y-8733293D02*
X15800777Y-8771389D01*
X15800777Y-8771389D02*
X15791253Y-8790436D01*
X15791253Y-8790436D02*
X15781729Y-8799960D01*
X15781729Y-8799960D02*
X15762682Y-8809484D01*
X15762682Y-8809484D02*
X15743634Y-8809484D01*
X15743634Y-8809484D02*
X15724586Y-8799960D01*
X15724586Y-8799960D02*
X15715063Y-8790436D01*
X15715063Y-8790436D02*
X15705539Y-8771389D01*
X15705539Y-8771389D02*
X15696015Y-8733293D01*
X15696015Y-8733293D02*
X15696015Y-8685674D01*
X15696015Y-8685674D02*
X15705539Y-8647579D01*
X15705539Y-8647579D02*
X15715063Y-8628531D01*
X15715063Y-8628531D02*
X15724586Y-8619008D01*
X15724586Y-8619008D02*
X15743634Y-8609484D01*
X15896015Y-8790436D02*
X15905539Y-8799960D01*
X15905539Y-8799960D02*
X15896015Y-8809484D01*
X15896015Y-8809484D02*
X15886491Y-8799960D01*
X15886491Y-8799960D02*
X15896015Y-8790436D01*
X15896015Y-8790436D02*
X15896015Y-8809484D01*
X16029348Y-8609484D02*
X16048396Y-8609484D01*
X16048396Y-8609484D02*
X16067444Y-8619008D01*
X16067444Y-8619008D02*
X16076967Y-8628531D01*
X16076967Y-8628531D02*
X16086491Y-8647579D01*
X16086491Y-8647579D02*
X16096015Y-8685674D01*
X16096015Y-8685674D02*
X16096015Y-8733293D01*
X16096015Y-8733293D02*
X16086491Y-8771389D01*
X16086491Y-8771389D02*
X16076967Y-8790436D01*
X16076967Y-8790436D02*
X16067444Y-8799960D01*
X16067444Y-8799960D02*
X16048396Y-8809484D01*
X16048396Y-8809484D02*
X16029348Y-8809484D01*
X16029348Y-8809484D02*
X16010301Y-8799960D01*
X16010301Y-8799960D02*
X16000777Y-8790436D01*
X16000777Y-8790436D02*
X15991253Y-8771389D01*
X15991253Y-8771389D02*
X15981729Y-8733293D01*
X15981729Y-8733293D02*
X15981729Y-8685674D01*
X15981729Y-8685674D02*
X15991253Y-8647579D01*
X15991253Y-8647579D02*
X16000777Y-8628531D01*
X16000777Y-8628531D02*
X16010301Y-8619008D01*
X16010301Y-8619008D02*
X16029348Y-8609484D01*
X16162682Y-8609484D02*
X16286491Y-8609484D01*
X16286491Y-8609484D02*
X16219825Y-8685674D01*
X16219825Y-8685674D02*
X16248396Y-8685674D01*
X16248396Y-8685674D02*
X16267444Y-8695198D01*
X16267444Y-8695198D02*
X16276967Y-8704722D01*
X16276967Y-8704722D02*
X16286491Y-8723770D01*
X16286491Y-8723770D02*
X16286491Y-8771389D01*
X16286491Y-8771389D02*
X16276967Y-8790436D01*
X16276967Y-8790436D02*
X16267444Y-8799960D01*
X16267444Y-8799960D02*
X16248396Y-8809484D01*
X16248396Y-8809484D02*
X16191253Y-8809484D01*
X16191253Y-8809484D02*
X16172206Y-8799960D01*
X16172206Y-8799960D02*
X16162682Y-8790436D01*
X16381729Y-8809484D02*
X16419825Y-8809484D01*
X16419825Y-8809484D02*
X16438872Y-8799960D01*
X16438872Y-8799960D02*
X16448396Y-8790436D01*
X16448396Y-8790436D02*
X16467444Y-8761865D01*
X16467444Y-8761865D02*
X16476967Y-8723770D01*
X16476967Y-8723770D02*
X16476967Y-8647579D01*
X16476967Y-8647579D02*
X16467444Y-8628531D01*
X16467444Y-8628531D02*
X16457920Y-8619008D01*
X16457920Y-8619008D02*
X16438872Y-8609484D01*
X16438872Y-8609484D02*
X16400777Y-8609484D01*
X16400777Y-8609484D02*
X16381729Y-8619008D01*
X16381729Y-8619008D02*
X16372206Y-8628531D01*
X16372206Y-8628531D02*
X16362682Y-8647579D01*
X16362682Y-8647579D02*
X16362682Y-8695198D01*
X16362682Y-8695198D02*
X16372206Y-8714246D01*
X16372206Y-8714246D02*
X16381729Y-8723770D01*
X16381729Y-8723770D02*
X16400777Y-8733293D01*
X16400777Y-8733293D02*
X16438872Y-8733293D01*
X16438872Y-8733293D02*
X16457920Y-8723770D01*
X16457920Y-8723770D02*
X16467444Y-8714246D01*
X16467444Y-8714246D02*
X16476967Y-8695198D01*
X16648396Y-8676150D02*
X16648396Y-8809484D01*
X16600777Y-8599960D02*
X16553158Y-8742817D01*
X16553158Y-8742817D02*
X16676967Y-8742817D01*
X16743634Y-8609484D02*
X16743634Y-8647579D01*
X16819825Y-8609484D02*
X16819825Y-8647579D01*
X17115063Y-8885674D02*
X17105539Y-8876150D01*
X17105539Y-8876150D02*
X17086491Y-8847579D01*
X17086491Y-8847579D02*
X17076968Y-8828531D01*
X17076968Y-8828531D02*
X17067444Y-8799960D01*
X17067444Y-8799960D02*
X17057920Y-8752341D01*
X17057920Y-8752341D02*
X17057920Y-8714246D01*
X17057920Y-8714246D02*
X17067444Y-8666627D01*
X17067444Y-8666627D02*
X17076968Y-8638055D01*
X17076968Y-8638055D02*
X17086491Y-8619008D01*
X17086491Y-8619008D02*
X17105539Y-8590436D01*
X17105539Y-8590436D02*
X17115063Y-8580912D01*
X17172206Y-8609484D02*
X17296015Y-8609484D01*
X17296015Y-8609484D02*
X17229349Y-8685674D01*
X17229349Y-8685674D02*
X17257920Y-8685674D01*
X17257920Y-8685674D02*
X17276968Y-8695198D01*
X17276968Y-8695198D02*
X17286491Y-8704722D01*
X17286491Y-8704722D02*
X17296015Y-8723770D01*
X17296015Y-8723770D02*
X17296015Y-8771389D01*
X17296015Y-8771389D02*
X17286491Y-8790436D01*
X17286491Y-8790436D02*
X17276968Y-8799960D01*
X17276968Y-8799960D02*
X17257920Y-8809484D01*
X17257920Y-8809484D02*
X17200777Y-8809484D01*
X17200777Y-8809484D02*
X17181730Y-8799960D01*
X17181730Y-8799960D02*
X17172206Y-8790436D01*
X17534111Y-8809484D02*
X17534111Y-8609484D01*
X17619825Y-8809484D02*
X17619825Y-8704722D01*
X17619825Y-8704722D02*
X17610301Y-8685674D01*
X17610301Y-8685674D02*
X17591253Y-8676150D01*
X17591253Y-8676150D02*
X17562682Y-8676150D01*
X17562682Y-8676150D02*
X17543634Y-8685674D01*
X17543634Y-8685674D02*
X17534111Y-8695198D01*
X17743634Y-8809484D02*
X17724587Y-8799960D01*
X17724587Y-8799960D02*
X17715063Y-8790436D01*
X17715063Y-8790436D02*
X17705539Y-8771389D01*
X17705539Y-8771389D02*
X17705539Y-8714246D01*
X17705539Y-8714246D02*
X17715063Y-8695198D01*
X17715063Y-8695198D02*
X17724587Y-8685674D01*
X17724587Y-8685674D02*
X17743634Y-8676150D01*
X17743634Y-8676150D02*
X17772206Y-8676150D01*
X17772206Y-8676150D02*
X17791253Y-8685674D01*
X17791253Y-8685674D02*
X17800777Y-8695198D01*
X17800777Y-8695198D02*
X17810301Y-8714246D01*
X17810301Y-8714246D02*
X17810301Y-8771389D01*
X17810301Y-8771389D02*
X17800777Y-8790436D01*
X17800777Y-8790436D02*
X17791253Y-8799960D01*
X17791253Y-8799960D02*
X17772206Y-8809484D01*
X17772206Y-8809484D02*
X17743634Y-8809484D01*
X17924587Y-8809484D02*
X17905539Y-8799960D01*
X17905539Y-8799960D02*
X17896015Y-8780912D01*
X17896015Y-8780912D02*
X17896015Y-8609484D01*
X18076968Y-8799960D02*
X18057920Y-8809484D01*
X18057920Y-8809484D02*
X18019825Y-8809484D01*
X18019825Y-8809484D02*
X18000777Y-8799960D01*
X18000777Y-8799960D02*
X17991253Y-8780912D01*
X17991253Y-8780912D02*
X17991253Y-8704722D01*
X17991253Y-8704722D02*
X18000777Y-8685674D01*
X18000777Y-8685674D02*
X18019825Y-8676150D01*
X18019825Y-8676150D02*
X18057920Y-8676150D01*
X18057920Y-8676150D02*
X18076968Y-8685674D01*
X18076968Y-8685674D02*
X18086492Y-8704722D01*
X18086492Y-8704722D02*
X18086492Y-8723770D01*
X18086492Y-8723770D02*
X17991253Y-8742817D01*
X18162682Y-8799960D02*
X18181730Y-8809484D01*
X18181730Y-8809484D02*
X18219825Y-8809484D01*
X18219825Y-8809484D02*
X18238873Y-8799960D01*
X18238873Y-8799960D02*
X18248396Y-8780912D01*
X18248396Y-8780912D02*
X18248396Y-8771389D01*
X18248396Y-8771389D02*
X18238873Y-8752341D01*
X18238873Y-8752341D02*
X18219825Y-8742817D01*
X18219825Y-8742817D02*
X18191253Y-8742817D01*
X18191253Y-8742817D02*
X18172206Y-8733293D01*
X18172206Y-8733293D02*
X18162682Y-8714246D01*
X18162682Y-8714246D02*
X18162682Y-8704722D01*
X18162682Y-8704722D02*
X18172206Y-8685674D01*
X18172206Y-8685674D02*
X18191253Y-8676150D01*
X18191253Y-8676150D02*
X18219825Y-8676150D01*
X18219825Y-8676150D02*
X18238873Y-8685674D01*
X18315063Y-8885674D02*
X18324587Y-8876150D01*
X18324587Y-8876150D02*
X18343634Y-8847579D01*
X18343634Y-8847579D02*
X18353158Y-8828531D01*
X18353158Y-8828531D02*
X18362682Y-8799960D01*
X18362682Y-8799960D02*
X18372206Y-8752341D01*
X18372206Y-8752341D02*
X18372206Y-8714246D01*
X18372206Y-8714246D02*
X18362682Y-8666627D01*
X18362682Y-8666627D02*
X18353158Y-8638055D01*
X18353158Y-8638055D02*
X18343634Y-8619008D01*
X18343634Y-8619008D02*
X18324587Y-8590436D01*
X18324587Y-8590436D02*
X18315063Y-8580912D01*
D12*
X13540000Y-8982000D02*
G75*
G03*
X13540000Y-8982000I-66000J0D01*
G01*
D11*
X13905539Y-9073484D02*
X13791253Y-9073484D01*
X13848396Y-9073484D02*
X13848396Y-8873484D01*
X13848396Y-8873484D02*
X13829348Y-8902055D01*
X13829348Y-8902055D02*
X13810301Y-8921103D01*
X13810301Y-8921103D02*
X13791253Y-8930627D01*
X13991253Y-9054436D02*
X14000777Y-9063960D01*
X14000777Y-9063960D02*
X13991253Y-9073484D01*
X13991253Y-9073484D02*
X13981729Y-9063960D01*
X13981729Y-9063960D02*
X13991253Y-9054436D01*
X13991253Y-9054436D02*
X13991253Y-9073484D01*
X14067443Y-8873484D02*
X14191253Y-8873484D01*
X14191253Y-8873484D02*
X14124586Y-8949674D01*
X14124586Y-8949674D02*
X14153158Y-8949674D01*
X14153158Y-8949674D02*
X14172205Y-8959198D01*
X14172205Y-8959198D02*
X14181729Y-8968722D01*
X14181729Y-8968722D02*
X14191253Y-8987770D01*
X14191253Y-8987770D02*
X14191253Y-9035389D01*
X14191253Y-9035389D02*
X14181729Y-9054436D01*
X14181729Y-9054436D02*
X14172205Y-9063960D01*
X14172205Y-9063960D02*
X14153158Y-9073484D01*
X14153158Y-9073484D02*
X14096015Y-9073484D01*
X14096015Y-9073484D02*
X14076967Y-9063960D01*
X14076967Y-9063960D02*
X14067443Y-9054436D01*
X14267443Y-8892531D02*
X14276967Y-8883008D01*
X14276967Y-8883008D02*
X14296015Y-8873484D01*
X14296015Y-8873484D02*
X14343634Y-8873484D01*
X14343634Y-8873484D02*
X14362682Y-8883008D01*
X14362682Y-8883008D02*
X14372205Y-8892531D01*
X14372205Y-8892531D02*
X14381729Y-8911579D01*
X14381729Y-8911579D02*
X14381729Y-8930627D01*
X14381729Y-8930627D02*
X14372205Y-8959198D01*
X14372205Y-8959198D02*
X14257920Y-9073484D01*
X14257920Y-9073484D02*
X14381729Y-9073484D01*
X14505539Y-8873484D02*
X14524586Y-8873484D01*
X14524586Y-8873484D02*
X14543634Y-8883008D01*
X14543634Y-8883008D02*
X14553158Y-8892531D01*
X14553158Y-8892531D02*
X14562682Y-8911579D01*
X14562682Y-8911579D02*
X14572205Y-8949674D01*
X14572205Y-8949674D02*
X14572205Y-8997293D01*
X14572205Y-8997293D02*
X14562682Y-9035389D01*
X14562682Y-9035389D02*
X14553158Y-9054436D01*
X14553158Y-9054436D02*
X14543634Y-9063960D01*
X14543634Y-9063960D02*
X14524586Y-9073484D01*
X14524586Y-9073484D02*
X14505539Y-9073484D01*
X14505539Y-9073484D02*
X14486491Y-9063960D01*
X14486491Y-9063960D02*
X14476967Y-9054436D01*
X14476967Y-9054436D02*
X14467443Y-9035389D01*
X14467443Y-9035389D02*
X14457920Y-8997293D01*
X14457920Y-8997293D02*
X14457920Y-8949674D01*
X14457920Y-8949674D02*
X14467443Y-8911579D01*
X14467443Y-8911579D02*
X14476967Y-8892531D01*
X14476967Y-8892531D02*
X14486491Y-8883008D01*
X14486491Y-8883008D02*
X14505539Y-8873484D01*
X14657920Y-9073484D02*
X14657920Y-8940150D01*
X14657920Y-8959198D02*
X14667443Y-8949674D01*
X14667443Y-8949674D02*
X14686491Y-8940150D01*
X14686491Y-8940150D02*
X14715063Y-8940150D01*
X14715063Y-8940150D02*
X14734110Y-8949674D01*
X14734110Y-8949674D02*
X14743634Y-8968722D01*
X14743634Y-8968722D02*
X14743634Y-9073484D01*
X14743634Y-8968722D02*
X14753158Y-8949674D01*
X14753158Y-8949674D02*
X14772205Y-8940150D01*
X14772205Y-8940150D02*
X14800777Y-8940150D01*
X14800777Y-8940150D02*
X14819824Y-8949674D01*
X14819824Y-8949674D02*
X14829348Y-8968722D01*
X14829348Y-8968722D02*
X14829348Y-9073484D01*
X14924586Y-9073484D02*
X14924586Y-8940150D01*
X14924586Y-8959198D02*
X14934110Y-8949674D01*
X14934110Y-8949674D02*
X14953158Y-8940150D01*
X14953158Y-8940150D02*
X14981729Y-8940150D01*
X14981729Y-8940150D02*
X15000777Y-8949674D01*
X15000777Y-8949674D02*
X15010301Y-8968722D01*
X15010301Y-8968722D02*
X15010301Y-9073484D01*
X15010301Y-8968722D02*
X15019824Y-8949674D01*
X15019824Y-8949674D02*
X15038872Y-8940150D01*
X15038872Y-8940150D02*
X15067443Y-8940150D01*
X15067443Y-8940150D02*
X15086491Y-8949674D01*
X15086491Y-8949674D02*
X15096015Y-8968722D01*
X15096015Y-8968722D02*
X15096015Y-9073484D01*
X15486491Y-8863960D02*
X15315063Y-9121103D01*
X15743634Y-8873484D02*
X15762682Y-8873484D01*
X15762682Y-8873484D02*
X15781729Y-8883008D01*
X15781729Y-8883008D02*
X15791253Y-8892531D01*
X15791253Y-8892531D02*
X15800777Y-8911579D01*
X15800777Y-8911579D02*
X15810301Y-8949674D01*
X15810301Y-8949674D02*
X15810301Y-8997293D01*
X15810301Y-8997293D02*
X15800777Y-9035389D01*
X15800777Y-9035389D02*
X15791253Y-9054436D01*
X15791253Y-9054436D02*
X15781729Y-9063960D01*
X15781729Y-9063960D02*
X15762682Y-9073484D01*
X15762682Y-9073484D02*
X15743634Y-9073484D01*
X15743634Y-9073484D02*
X15724586Y-9063960D01*
X15724586Y-9063960D02*
X15715063Y-9054436D01*
X15715063Y-9054436D02*
X15705539Y-9035389D01*
X15705539Y-9035389D02*
X15696015Y-8997293D01*
X15696015Y-8997293D02*
X15696015Y-8949674D01*
X15696015Y-8949674D02*
X15705539Y-8911579D01*
X15705539Y-8911579D02*
X15715063Y-8892531D01*
X15715063Y-8892531D02*
X15724586Y-8883008D01*
X15724586Y-8883008D02*
X15743634Y-8873484D01*
X15896015Y-9054436D02*
X15905539Y-9063960D01*
X15905539Y-9063960D02*
X15896015Y-9073484D01*
X15896015Y-9073484D02*
X15886491Y-9063960D01*
X15886491Y-9063960D02*
X15896015Y-9054436D01*
X15896015Y-9054436D02*
X15896015Y-9073484D01*
X16029348Y-8873484D02*
X16048396Y-8873484D01*
X16048396Y-8873484D02*
X16067444Y-8883008D01*
X16067444Y-8883008D02*
X16076967Y-8892531D01*
X16076967Y-8892531D02*
X16086491Y-8911579D01*
X16086491Y-8911579D02*
X16096015Y-8949674D01*
X16096015Y-8949674D02*
X16096015Y-8997293D01*
X16096015Y-8997293D02*
X16086491Y-9035389D01*
X16086491Y-9035389D02*
X16076967Y-9054436D01*
X16076967Y-9054436D02*
X16067444Y-9063960D01*
X16067444Y-9063960D02*
X16048396Y-9073484D01*
X16048396Y-9073484D02*
X16029348Y-9073484D01*
X16029348Y-9073484D02*
X16010301Y-9063960D01*
X16010301Y-9063960D02*
X16000777Y-9054436D01*
X16000777Y-9054436D02*
X15991253Y-9035389D01*
X15991253Y-9035389D02*
X15981729Y-8997293D01*
X15981729Y-8997293D02*
X15981729Y-8949674D01*
X15981729Y-8949674D02*
X15991253Y-8911579D01*
X15991253Y-8911579D02*
X16000777Y-8892531D01*
X16000777Y-8892531D02*
X16010301Y-8883008D01*
X16010301Y-8883008D02*
X16029348Y-8873484D01*
X16276967Y-8873484D02*
X16181729Y-8873484D01*
X16181729Y-8873484D02*
X16172206Y-8968722D01*
X16172206Y-8968722D02*
X16181729Y-8959198D01*
X16181729Y-8959198D02*
X16200777Y-8949674D01*
X16200777Y-8949674D02*
X16248396Y-8949674D01*
X16248396Y-8949674D02*
X16267444Y-8959198D01*
X16267444Y-8959198D02*
X16276967Y-8968722D01*
X16276967Y-8968722D02*
X16286491Y-8987770D01*
X16286491Y-8987770D02*
X16286491Y-9035389D01*
X16286491Y-9035389D02*
X16276967Y-9054436D01*
X16276967Y-9054436D02*
X16267444Y-9063960D01*
X16267444Y-9063960D02*
X16248396Y-9073484D01*
X16248396Y-9073484D02*
X16200777Y-9073484D01*
X16200777Y-9073484D02*
X16181729Y-9063960D01*
X16181729Y-9063960D02*
X16172206Y-9054436D01*
X16362682Y-8892531D02*
X16372206Y-8883008D01*
X16372206Y-8883008D02*
X16391253Y-8873484D01*
X16391253Y-8873484D02*
X16438872Y-8873484D01*
X16438872Y-8873484D02*
X16457920Y-8883008D01*
X16457920Y-8883008D02*
X16467444Y-8892531D01*
X16467444Y-8892531D02*
X16476967Y-8911579D01*
X16476967Y-8911579D02*
X16476967Y-8930627D01*
X16476967Y-8930627D02*
X16467444Y-8959198D01*
X16467444Y-8959198D02*
X16353158Y-9073484D01*
X16353158Y-9073484D02*
X16476967Y-9073484D01*
X16600777Y-8873484D02*
X16619825Y-8873484D01*
X16619825Y-8873484D02*
X16638872Y-8883008D01*
X16638872Y-8883008D02*
X16648396Y-8892531D01*
X16648396Y-8892531D02*
X16657920Y-8911579D01*
X16657920Y-8911579D02*
X16667444Y-8949674D01*
X16667444Y-8949674D02*
X16667444Y-8997293D01*
X16667444Y-8997293D02*
X16657920Y-9035389D01*
X16657920Y-9035389D02*
X16648396Y-9054436D01*
X16648396Y-9054436D02*
X16638872Y-9063960D01*
X16638872Y-9063960D02*
X16619825Y-9073484D01*
X16619825Y-9073484D02*
X16600777Y-9073484D01*
X16600777Y-9073484D02*
X16581729Y-9063960D01*
X16581729Y-9063960D02*
X16572206Y-9054436D01*
X16572206Y-9054436D02*
X16562682Y-9035389D01*
X16562682Y-9035389D02*
X16553158Y-8997293D01*
X16553158Y-8997293D02*
X16553158Y-8949674D01*
X16553158Y-8949674D02*
X16562682Y-8911579D01*
X16562682Y-8911579D02*
X16572206Y-8892531D01*
X16572206Y-8892531D02*
X16581729Y-8883008D01*
X16581729Y-8883008D02*
X16600777Y-8873484D01*
X16743634Y-8873484D02*
X16743634Y-8911579D01*
X16819825Y-8873484D02*
X16819825Y-8911579D01*
X17115063Y-9149674D02*
X17105539Y-9140150D01*
X17105539Y-9140150D02*
X17086491Y-9111579D01*
X17086491Y-9111579D02*
X17076968Y-9092531D01*
X17076968Y-9092531D02*
X17067444Y-9063960D01*
X17067444Y-9063960D02*
X17057920Y-9016341D01*
X17057920Y-9016341D02*
X17057920Y-8978246D01*
X17057920Y-8978246D02*
X17067444Y-8930627D01*
X17067444Y-8930627D02*
X17076968Y-8902055D01*
X17076968Y-8902055D02*
X17086491Y-8883008D01*
X17086491Y-8883008D02*
X17105539Y-8854436D01*
X17105539Y-8854436D02*
X17115063Y-8844912D01*
X17181730Y-8892531D02*
X17191253Y-8883008D01*
X17191253Y-8883008D02*
X17210301Y-8873484D01*
X17210301Y-8873484D02*
X17257920Y-8873484D01*
X17257920Y-8873484D02*
X17276968Y-8883008D01*
X17276968Y-8883008D02*
X17286491Y-8892531D01*
X17286491Y-8892531D02*
X17296015Y-8911579D01*
X17296015Y-8911579D02*
X17296015Y-8930627D01*
X17296015Y-8930627D02*
X17286491Y-8959198D01*
X17286491Y-8959198D02*
X17172206Y-9073484D01*
X17172206Y-9073484D02*
X17296015Y-9073484D01*
X17534111Y-9073484D02*
X17534111Y-8873484D01*
X17619825Y-9073484D02*
X17619825Y-8968722D01*
X17619825Y-8968722D02*
X17610301Y-8949674D01*
X17610301Y-8949674D02*
X17591253Y-8940150D01*
X17591253Y-8940150D02*
X17562682Y-8940150D01*
X17562682Y-8940150D02*
X17543634Y-8949674D01*
X17543634Y-8949674D02*
X17534111Y-8959198D01*
X17743634Y-9073484D02*
X17724587Y-9063960D01*
X17724587Y-9063960D02*
X17715063Y-9054436D01*
X17715063Y-9054436D02*
X17705539Y-9035389D01*
X17705539Y-9035389D02*
X17705539Y-8978246D01*
X17705539Y-8978246D02*
X17715063Y-8959198D01*
X17715063Y-8959198D02*
X17724587Y-8949674D01*
X17724587Y-8949674D02*
X17743634Y-8940150D01*
X17743634Y-8940150D02*
X17772206Y-8940150D01*
X17772206Y-8940150D02*
X17791253Y-8949674D01*
X17791253Y-8949674D02*
X17800777Y-8959198D01*
X17800777Y-8959198D02*
X17810301Y-8978246D01*
X17810301Y-8978246D02*
X17810301Y-9035389D01*
X17810301Y-9035389D02*
X17800777Y-9054436D01*
X17800777Y-9054436D02*
X17791253Y-9063960D01*
X17791253Y-9063960D02*
X17772206Y-9073484D01*
X17772206Y-9073484D02*
X17743634Y-9073484D01*
X17924587Y-9073484D02*
X17905539Y-9063960D01*
X17905539Y-9063960D02*
X17896015Y-9044912D01*
X17896015Y-9044912D02*
X17896015Y-8873484D01*
X18076968Y-9063960D02*
X18057920Y-9073484D01*
X18057920Y-9073484D02*
X18019825Y-9073484D01*
X18019825Y-9073484D02*
X18000777Y-9063960D01*
X18000777Y-9063960D02*
X17991253Y-9044912D01*
X17991253Y-9044912D02*
X17991253Y-8968722D01*
X17991253Y-8968722D02*
X18000777Y-8949674D01*
X18000777Y-8949674D02*
X18019825Y-8940150D01*
X18019825Y-8940150D02*
X18057920Y-8940150D01*
X18057920Y-8940150D02*
X18076968Y-8949674D01*
X18076968Y-8949674D02*
X18086492Y-8968722D01*
X18086492Y-8968722D02*
X18086492Y-8987770D01*
X18086492Y-8987770D02*
X17991253Y-9006817D01*
X18162682Y-9063960D02*
X18181730Y-9073484D01*
X18181730Y-9073484D02*
X18219825Y-9073484D01*
X18219825Y-9073484D02*
X18238873Y-9063960D01*
X18238873Y-9063960D02*
X18248396Y-9044912D01*
X18248396Y-9044912D02*
X18248396Y-9035389D01*
X18248396Y-9035389D02*
X18238873Y-9016341D01*
X18238873Y-9016341D02*
X18219825Y-9006817D01*
X18219825Y-9006817D02*
X18191253Y-9006817D01*
X18191253Y-9006817D02*
X18172206Y-8997293D01*
X18172206Y-8997293D02*
X18162682Y-8978246D01*
X18162682Y-8978246D02*
X18162682Y-8968722D01*
X18162682Y-8968722D02*
X18172206Y-8949674D01*
X18172206Y-8949674D02*
X18191253Y-8940150D01*
X18191253Y-8940150D02*
X18219825Y-8940150D01*
X18219825Y-8940150D02*
X18238873Y-8949674D01*
X18315063Y-9149674D02*
X18324587Y-9140150D01*
X18324587Y-9140150D02*
X18343634Y-9111579D01*
X18343634Y-9111579D02*
X18353158Y-9092531D01*
X18353158Y-9092531D02*
X18362682Y-9063960D01*
X18362682Y-9063960D02*
X18372206Y-9016341D01*
X18372206Y-9016341D02*
X18372206Y-8978246D01*
X18372206Y-8978246D02*
X18362682Y-8930627D01*
X18362682Y-8930627D02*
X18353158Y-8902055D01*
X18353158Y-8902055D02*
X18343634Y-8883008D01*
X18343634Y-8883008D02*
X18324587Y-8854436D01*
X18324587Y-8854436D02*
X18315063Y-8844912D01*
D13*
X13470000Y-9176000D02*
X13470000Y-9316000D01*
X13400000Y-9246000D02*
X13540000Y-9246000D01*
D11*
X13905539Y-9337484D02*
X13791253Y-9337484D01*
X13848396Y-9337484D02*
X13848396Y-9137484D01*
X13848396Y-9137484D02*
X13829348Y-9166055D01*
X13829348Y-9166055D02*
X13810301Y-9185103D01*
X13810301Y-9185103D02*
X13791253Y-9194627D01*
X13991253Y-9318436D02*
X14000777Y-9327960D01*
X14000777Y-9327960D02*
X13991253Y-9337484D01*
X13991253Y-9337484D02*
X13981729Y-9327960D01*
X13981729Y-9327960D02*
X13991253Y-9318436D01*
X13991253Y-9318436D02*
X13991253Y-9337484D01*
X14172205Y-9204150D02*
X14172205Y-9337484D01*
X14124586Y-9127960D02*
X14076967Y-9270817D01*
X14076967Y-9270817D02*
X14200777Y-9270817D01*
X14315062Y-9137484D02*
X14334110Y-9137484D01*
X14334110Y-9137484D02*
X14353158Y-9147008D01*
X14353158Y-9147008D02*
X14362682Y-9156531D01*
X14362682Y-9156531D02*
X14372205Y-9175579D01*
X14372205Y-9175579D02*
X14381729Y-9213674D01*
X14381729Y-9213674D02*
X14381729Y-9261293D01*
X14381729Y-9261293D02*
X14372205Y-9299389D01*
X14372205Y-9299389D02*
X14362682Y-9318436D01*
X14362682Y-9318436D02*
X14353158Y-9327960D01*
X14353158Y-9327960D02*
X14334110Y-9337484D01*
X14334110Y-9337484D02*
X14315062Y-9337484D01*
X14315062Y-9337484D02*
X14296015Y-9327960D01*
X14296015Y-9327960D02*
X14286491Y-9318436D01*
X14286491Y-9318436D02*
X14276967Y-9299389D01*
X14276967Y-9299389D02*
X14267443Y-9261293D01*
X14267443Y-9261293D02*
X14267443Y-9213674D01*
X14267443Y-9213674D02*
X14276967Y-9175579D01*
X14276967Y-9175579D02*
X14286491Y-9156531D01*
X14286491Y-9156531D02*
X14296015Y-9147008D01*
X14296015Y-9147008D02*
X14315062Y-9137484D01*
X14505539Y-9137484D02*
X14524586Y-9137484D01*
X14524586Y-9137484D02*
X14543634Y-9147008D01*
X14543634Y-9147008D02*
X14553158Y-9156531D01*
X14553158Y-9156531D02*
X14562682Y-9175579D01*
X14562682Y-9175579D02*
X14572205Y-9213674D01*
X14572205Y-9213674D02*
X14572205Y-9261293D01*
X14572205Y-9261293D02*
X14562682Y-9299389D01*
X14562682Y-9299389D02*
X14553158Y-9318436D01*
X14553158Y-9318436D02*
X14543634Y-9327960D01*
X14543634Y-9327960D02*
X14524586Y-9337484D01*
X14524586Y-9337484D02*
X14505539Y-9337484D01*
X14505539Y-9337484D02*
X14486491Y-9327960D01*
X14486491Y-9327960D02*
X14476967Y-9318436D01*
X14476967Y-9318436D02*
X14467443Y-9299389D01*
X14467443Y-9299389D02*
X14457920Y-9261293D01*
X14457920Y-9261293D02*
X14457920Y-9213674D01*
X14457920Y-9213674D02*
X14467443Y-9175579D01*
X14467443Y-9175579D02*
X14476967Y-9156531D01*
X14476967Y-9156531D02*
X14486491Y-9147008D01*
X14486491Y-9147008D02*
X14505539Y-9137484D01*
X14657920Y-9337484D02*
X14657920Y-9204150D01*
X14657920Y-9223198D02*
X14667443Y-9213674D01*
X14667443Y-9213674D02*
X14686491Y-9204150D01*
X14686491Y-9204150D02*
X14715063Y-9204150D01*
X14715063Y-9204150D02*
X14734110Y-9213674D01*
X14734110Y-9213674D02*
X14743634Y-9232722D01*
X14743634Y-9232722D02*
X14743634Y-9337484D01*
X14743634Y-9232722D02*
X14753158Y-9213674D01*
X14753158Y-9213674D02*
X14772205Y-9204150D01*
X14772205Y-9204150D02*
X14800777Y-9204150D01*
X14800777Y-9204150D02*
X14819824Y-9213674D01*
X14819824Y-9213674D02*
X14829348Y-9232722D01*
X14829348Y-9232722D02*
X14829348Y-9337484D01*
X14924586Y-9337484D02*
X14924586Y-9204150D01*
X14924586Y-9223198D02*
X14934110Y-9213674D01*
X14934110Y-9213674D02*
X14953158Y-9204150D01*
X14953158Y-9204150D02*
X14981729Y-9204150D01*
X14981729Y-9204150D02*
X15000777Y-9213674D01*
X15000777Y-9213674D02*
X15010301Y-9232722D01*
X15010301Y-9232722D02*
X15010301Y-9337484D01*
X15010301Y-9232722D02*
X15019824Y-9213674D01*
X15019824Y-9213674D02*
X15038872Y-9204150D01*
X15038872Y-9204150D02*
X15067443Y-9204150D01*
X15067443Y-9204150D02*
X15086491Y-9213674D01*
X15086491Y-9213674D02*
X15096015Y-9232722D01*
X15096015Y-9232722D02*
X15096015Y-9337484D01*
X15486491Y-9127960D02*
X15315063Y-9385103D01*
X15743634Y-9137484D02*
X15762682Y-9137484D01*
X15762682Y-9137484D02*
X15781729Y-9147008D01*
X15781729Y-9147008D02*
X15791253Y-9156531D01*
X15791253Y-9156531D02*
X15800777Y-9175579D01*
X15800777Y-9175579D02*
X15810301Y-9213674D01*
X15810301Y-9213674D02*
X15810301Y-9261293D01*
X15810301Y-9261293D02*
X15800777Y-9299389D01*
X15800777Y-9299389D02*
X15791253Y-9318436D01*
X15791253Y-9318436D02*
X15781729Y-9327960D01*
X15781729Y-9327960D02*
X15762682Y-9337484D01*
X15762682Y-9337484D02*
X15743634Y-9337484D01*
X15743634Y-9337484D02*
X15724586Y-9327960D01*
X15724586Y-9327960D02*
X15715063Y-9318436D01*
X15715063Y-9318436D02*
X15705539Y-9299389D01*
X15705539Y-9299389D02*
X15696015Y-9261293D01*
X15696015Y-9261293D02*
X15696015Y-9213674D01*
X15696015Y-9213674D02*
X15705539Y-9175579D01*
X15705539Y-9175579D02*
X15715063Y-9156531D01*
X15715063Y-9156531D02*
X15724586Y-9147008D01*
X15724586Y-9147008D02*
X15743634Y-9137484D01*
X15896015Y-9318436D02*
X15905539Y-9327960D01*
X15905539Y-9327960D02*
X15896015Y-9337484D01*
X15896015Y-9337484D02*
X15886491Y-9327960D01*
X15886491Y-9327960D02*
X15896015Y-9318436D01*
X15896015Y-9318436D02*
X15896015Y-9337484D01*
X16029348Y-9137484D02*
X16048396Y-9137484D01*
X16048396Y-9137484D02*
X16067444Y-9147008D01*
X16067444Y-9147008D02*
X16076967Y-9156531D01*
X16076967Y-9156531D02*
X16086491Y-9175579D01*
X16086491Y-9175579D02*
X16096015Y-9213674D01*
X16096015Y-9213674D02*
X16096015Y-9261293D01*
X16096015Y-9261293D02*
X16086491Y-9299389D01*
X16086491Y-9299389D02*
X16076967Y-9318436D01*
X16076967Y-9318436D02*
X16067444Y-9327960D01*
X16067444Y-9327960D02*
X16048396Y-9337484D01*
X16048396Y-9337484D02*
X16029348Y-9337484D01*
X16029348Y-9337484D02*
X16010301Y-9327960D01*
X16010301Y-9327960D02*
X16000777Y-9318436D01*
X16000777Y-9318436D02*
X15991253Y-9299389D01*
X15991253Y-9299389D02*
X15981729Y-9261293D01*
X15981729Y-9261293D02*
X15981729Y-9213674D01*
X15981729Y-9213674D02*
X15991253Y-9175579D01*
X15991253Y-9175579D02*
X16000777Y-9156531D01*
X16000777Y-9156531D02*
X16010301Y-9147008D01*
X16010301Y-9147008D02*
X16029348Y-9137484D01*
X16276967Y-9137484D02*
X16181729Y-9137484D01*
X16181729Y-9137484D02*
X16172206Y-9232722D01*
X16172206Y-9232722D02*
X16181729Y-9223198D01*
X16181729Y-9223198D02*
X16200777Y-9213674D01*
X16200777Y-9213674D02*
X16248396Y-9213674D01*
X16248396Y-9213674D02*
X16267444Y-9223198D01*
X16267444Y-9223198D02*
X16276967Y-9232722D01*
X16276967Y-9232722D02*
X16286491Y-9251770D01*
X16286491Y-9251770D02*
X16286491Y-9299389D01*
X16286491Y-9299389D02*
X16276967Y-9318436D01*
X16276967Y-9318436D02*
X16267444Y-9327960D01*
X16267444Y-9327960D02*
X16248396Y-9337484D01*
X16248396Y-9337484D02*
X16200777Y-9337484D01*
X16200777Y-9337484D02*
X16181729Y-9327960D01*
X16181729Y-9327960D02*
X16172206Y-9318436D01*
X16467444Y-9137484D02*
X16372206Y-9137484D01*
X16372206Y-9137484D02*
X16362682Y-9232722D01*
X16362682Y-9232722D02*
X16372206Y-9223198D01*
X16372206Y-9223198D02*
X16391253Y-9213674D01*
X16391253Y-9213674D02*
X16438872Y-9213674D01*
X16438872Y-9213674D02*
X16457920Y-9223198D01*
X16457920Y-9223198D02*
X16467444Y-9232722D01*
X16467444Y-9232722D02*
X16476967Y-9251770D01*
X16476967Y-9251770D02*
X16476967Y-9299389D01*
X16476967Y-9299389D02*
X16467444Y-9318436D01*
X16467444Y-9318436D02*
X16457920Y-9327960D01*
X16457920Y-9327960D02*
X16438872Y-9337484D01*
X16438872Y-9337484D02*
X16391253Y-9337484D01*
X16391253Y-9337484D02*
X16372206Y-9327960D01*
X16372206Y-9327960D02*
X16362682Y-9318436D01*
X16667444Y-9337484D02*
X16553158Y-9337484D01*
X16610301Y-9337484D02*
X16610301Y-9137484D01*
X16610301Y-9137484D02*
X16591253Y-9166055D01*
X16591253Y-9166055D02*
X16572206Y-9185103D01*
X16572206Y-9185103D02*
X16553158Y-9194627D01*
X16743634Y-9137484D02*
X16743634Y-9175579D01*
X16819825Y-9137484D02*
X16819825Y-9175579D01*
X17115063Y-9413674D02*
X17105539Y-9404150D01*
X17105539Y-9404150D02*
X17086491Y-9375579D01*
X17086491Y-9375579D02*
X17076968Y-9356531D01*
X17076968Y-9356531D02*
X17067444Y-9327960D01*
X17067444Y-9327960D02*
X17057920Y-9280341D01*
X17057920Y-9280341D02*
X17057920Y-9242246D01*
X17057920Y-9242246D02*
X17067444Y-9194627D01*
X17067444Y-9194627D02*
X17076968Y-9166055D01*
X17076968Y-9166055D02*
X17086491Y-9147008D01*
X17086491Y-9147008D02*
X17105539Y-9118436D01*
X17105539Y-9118436D02*
X17115063Y-9108912D01*
X17286491Y-9137484D02*
X17191253Y-9137484D01*
X17191253Y-9137484D02*
X17181730Y-9232722D01*
X17181730Y-9232722D02*
X17191253Y-9223198D01*
X17191253Y-9223198D02*
X17210301Y-9213674D01*
X17210301Y-9213674D02*
X17257920Y-9213674D01*
X17257920Y-9213674D02*
X17276968Y-9223198D01*
X17276968Y-9223198D02*
X17286491Y-9232722D01*
X17286491Y-9232722D02*
X17296015Y-9251770D01*
X17296015Y-9251770D02*
X17296015Y-9299389D01*
X17296015Y-9299389D02*
X17286491Y-9318436D01*
X17286491Y-9318436D02*
X17276968Y-9327960D01*
X17276968Y-9327960D02*
X17257920Y-9337484D01*
X17257920Y-9337484D02*
X17210301Y-9337484D01*
X17210301Y-9337484D02*
X17191253Y-9327960D01*
X17191253Y-9327960D02*
X17181730Y-9318436D01*
X17534111Y-9337484D02*
X17534111Y-9137484D01*
X17619825Y-9337484D02*
X17619825Y-9232722D01*
X17619825Y-9232722D02*
X17610301Y-9213674D01*
X17610301Y-9213674D02*
X17591253Y-9204150D01*
X17591253Y-9204150D02*
X17562682Y-9204150D01*
X17562682Y-9204150D02*
X17543634Y-9213674D01*
X17543634Y-9213674D02*
X17534111Y-9223198D01*
X17743634Y-9337484D02*
X17724587Y-9327960D01*
X17724587Y-9327960D02*
X17715063Y-9318436D01*
X17715063Y-9318436D02*
X17705539Y-9299389D01*
X17705539Y-9299389D02*
X17705539Y-9242246D01*
X17705539Y-9242246D02*
X17715063Y-9223198D01*
X17715063Y-9223198D02*
X17724587Y-9213674D01*
X17724587Y-9213674D02*
X17743634Y-9204150D01*
X17743634Y-9204150D02*
X17772206Y-9204150D01*
X17772206Y-9204150D02*
X17791253Y-9213674D01*
X17791253Y-9213674D02*
X17800777Y-9223198D01*
X17800777Y-9223198D02*
X17810301Y-9242246D01*
X17810301Y-9242246D02*
X17810301Y-9299389D01*
X17810301Y-9299389D02*
X17800777Y-9318436D01*
X17800777Y-9318436D02*
X17791253Y-9327960D01*
X17791253Y-9327960D02*
X17772206Y-9337484D01*
X17772206Y-9337484D02*
X17743634Y-9337484D01*
X17924587Y-9337484D02*
X17905539Y-9327960D01*
X17905539Y-9327960D02*
X17896015Y-9308912D01*
X17896015Y-9308912D02*
X17896015Y-9137484D01*
X18076968Y-9327960D02*
X18057920Y-9337484D01*
X18057920Y-9337484D02*
X18019825Y-9337484D01*
X18019825Y-9337484D02*
X18000777Y-9327960D01*
X18000777Y-9327960D02*
X17991253Y-9308912D01*
X17991253Y-9308912D02*
X17991253Y-9232722D01*
X17991253Y-9232722D02*
X18000777Y-9213674D01*
X18000777Y-9213674D02*
X18019825Y-9204150D01*
X18019825Y-9204150D02*
X18057920Y-9204150D01*
X18057920Y-9204150D02*
X18076968Y-9213674D01*
X18076968Y-9213674D02*
X18086492Y-9232722D01*
X18086492Y-9232722D02*
X18086492Y-9251770D01*
X18086492Y-9251770D02*
X17991253Y-9270817D01*
X18162682Y-9327960D02*
X18181730Y-9337484D01*
X18181730Y-9337484D02*
X18219825Y-9337484D01*
X18219825Y-9337484D02*
X18238873Y-9327960D01*
X18238873Y-9327960D02*
X18248396Y-9308912D01*
X18248396Y-9308912D02*
X18248396Y-9299389D01*
X18248396Y-9299389D02*
X18238873Y-9280341D01*
X18238873Y-9280341D02*
X18219825Y-9270817D01*
X18219825Y-9270817D02*
X18191253Y-9270817D01*
X18191253Y-9270817D02*
X18172206Y-9261293D01*
X18172206Y-9261293D02*
X18162682Y-9242246D01*
X18162682Y-9242246D02*
X18162682Y-9232722D01*
X18162682Y-9232722D02*
X18172206Y-9213674D01*
X18172206Y-9213674D02*
X18191253Y-9204150D01*
X18191253Y-9204150D02*
X18219825Y-9204150D01*
X18219825Y-9204150D02*
X18238873Y-9213674D01*
X18315063Y-9413674D02*
X18324587Y-9404150D01*
X18324587Y-9404150D02*
X18343634Y-9375579D01*
X18343634Y-9375579D02*
X18353158Y-9356531D01*
X18353158Y-9356531D02*
X18362682Y-9327960D01*
X18362682Y-9327960D02*
X18372206Y-9280341D01*
X18372206Y-9280341D02*
X18372206Y-9242246D01*
X18372206Y-9242246D02*
X18362682Y-9194627D01*
X18362682Y-9194627D02*
X18353158Y-9166055D01*
X18353158Y-9166055D02*
X18343634Y-9147008D01*
X18343634Y-9147008D02*
X18324587Y-9118436D01*
X18324587Y-9118436D02*
X18315063Y-9108912D01*
D14*
X13518033Y-9563034D02*
X13518033Y-9456967D01*
X13411966Y-9456967D01*
X13411966Y-9563034D01*
X13518033Y-9563034D01*
D11*
X13905539Y-9601484D02*
X13791253Y-9601484D01*
X13848396Y-9601484D02*
X13848396Y-9401484D01*
X13848396Y-9401484D02*
X13829348Y-9430055D01*
X13829348Y-9430055D02*
X13810301Y-9449103D01*
X13810301Y-9449103D02*
X13791253Y-9458627D01*
X13991253Y-9582436D02*
X14000777Y-9591960D01*
X14000777Y-9591960D02*
X13991253Y-9601484D01*
X13991253Y-9601484D02*
X13981729Y-9591960D01*
X13981729Y-9591960D02*
X13991253Y-9582436D01*
X13991253Y-9582436D02*
X13991253Y-9601484D01*
X14181729Y-9401484D02*
X14086491Y-9401484D01*
X14086491Y-9401484D02*
X14076967Y-9496722D01*
X14076967Y-9496722D02*
X14086491Y-9487198D01*
X14086491Y-9487198D02*
X14105539Y-9477674D01*
X14105539Y-9477674D02*
X14153158Y-9477674D01*
X14153158Y-9477674D02*
X14172205Y-9487198D01*
X14172205Y-9487198D02*
X14181729Y-9496722D01*
X14181729Y-9496722D02*
X14191253Y-9515770D01*
X14191253Y-9515770D02*
X14191253Y-9563389D01*
X14191253Y-9563389D02*
X14181729Y-9582436D01*
X14181729Y-9582436D02*
X14172205Y-9591960D01*
X14172205Y-9591960D02*
X14153158Y-9601484D01*
X14153158Y-9601484D02*
X14105539Y-9601484D01*
X14105539Y-9601484D02*
X14086491Y-9591960D01*
X14086491Y-9591960D02*
X14076967Y-9582436D01*
X14315062Y-9401484D02*
X14334110Y-9401484D01*
X14334110Y-9401484D02*
X14353158Y-9411008D01*
X14353158Y-9411008D02*
X14362682Y-9420531D01*
X14362682Y-9420531D02*
X14372205Y-9439579D01*
X14372205Y-9439579D02*
X14381729Y-9477674D01*
X14381729Y-9477674D02*
X14381729Y-9525293D01*
X14381729Y-9525293D02*
X14372205Y-9563389D01*
X14372205Y-9563389D02*
X14362682Y-9582436D01*
X14362682Y-9582436D02*
X14353158Y-9591960D01*
X14353158Y-9591960D02*
X14334110Y-9601484D01*
X14334110Y-9601484D02*
X14315062Y-9601484D01*
X14315062Y-9601484D02*
X14296015Y-9591960D01*
X14296015Y-9591960D02*
X14286491Y-9582436D01*
X14286491Y-9582436D02*
X14276967Y-9563389D01*
X14276967Y-9563389D02*
X14267443Y-9525293D01*
X14267443Y-9525293D02*
X14267443Y-9477674D01*
X14267443Y-9477674D02*
X14276967Y-9439579D01*
X14276967Y-9439579D02*
X14286491Y-9420531D01*
X14286491Y-9420531D02*
X14296015Y-9411008D01*
X14296015Y-9411008D02*
X14315062Y-9401484D01*
X14505539Y-9401484D02*
X14524586Y-9401484D01*
X14524586Y-9401484D02*
X14543634Y-9411008D01*
X14543634Y-9411008D02*
X14553158Y-9420531D01*
X14553158Y-9420531D02*
X14562682Y-9439579D01*
X14562682Y-9439579D02*
X14572205Y-9477674D01*
X14572205Y-9477674D02*
X14572205Y-9525293D01*
X14572205Y-9525293D02*
X14562682Y-9563389D01*
X14562682Y-9563389D02*
X14553158Y-9582436D01*
X14553158Y-9582436D02*
X14543634Y-9591960D01*
X14543634Y-9591960D02*
X14524586Y-9601484D01*
X14524586Y-9601484D02*
X14505539Y-9601484D01*
X14505539Y-9601484D02*
X14486491Y-9591960D01*
X14486491Y-9591960D02*
X14476967Y-9582436D01*
X14476967Y-9582436D02*
X14467443Y-9563389D01*
X14467443Y-9563389D02*
X14457920Y-9525293D01*
X14457920Y-9525293D02*
X14457920Y-9477674D01*
X14457920Y-9477674D02*
X14467443Y-9439579D01*
X14467443Y-9439579D02*
X14476967Y-9420531D01*
X14476967Y-9420531D02*
X14486491Y-9411008D01*
X14486491Y-9411008D02*
X14505539Y-9401484D01*
X14657920Y-9601484D02*
X14657920Y-9468150D01*
X14657920Y-9487198D02*
X14667443Y-9477674D01*
X14667443Y-9477674D02*
X14686491Y-9468150D01*
X14686491Y-9468150D02*
X14715063Y-9468150D01*
X14715063Y-9468150D02*
X14734110Y-9477674D01*
X14734110Y-9477674D02*
X14743634Y-9496722D01*
X14743634Y-9496722D02*
X14743634Y-9601484D01*
X14743634Y-9496722D02*
X14753158Y-9477674D01*
X14753158Y-9477674D02*
X14772205Y-9468150D01*
X14772205Y-9468150D02*
X14800777Y-9468150D01*
X14800777Y-9468150D02*
X14819824Y-9477674D01*
X14819824Y-9477674D02*
X14829348Y-9496722D01*
X14829348Y-9496722D02*
X14829348Y-9601484D01*
X14924586Y-9601484D02*
X14924586Y-9468150D01*
X14924586Y-9487198D02*
X14934110Y-9477674D01*
X14934110Y-9477674D02*
X14953158Y-9468150D01*
X14953158Y-9468150D02*
X14981729Y-9468150D01*
X14981729Y-9468150D02*
X15000777Y-9477674D01*
X15000777Y-9477674D02*
X15010301Y-9496722D01*
X15010301Y-9496722D02*
X15010301Y-9601484D01*
X15010301Y-9496722D02*
X15019824Y-9477674D01*
X15019824Y-9477674D02*
X15038872Y-9468150D01*
X15038872Y-9468150D02*
X15067443Y-9468150D01*
X15067443Y-9468150D02*
X15086491Y-9477674D01*
X15086491Y-9477674D02*
X15096015Y-9496722D01*
X15096015Y-9496722D02*
X15096015Y-9601484D01*
X15486491Y-9391960D02*
X15315063Y-9649103D01*
X15743634Y-9401484D02*
X15762682Y-9401484D01*
X15762682Y-9401484D02*
X15781729Y-9411008D01*
X15781729Y-9411008D02*
X15791253Y-9420531D01*
X15791253Y-9420531D02*
X15800777Y-9439579D01*
X15800777Y-9439579D02*
X15810301Y-9477674D01*
X15810301Y-9477674D02*
X15810301Y-9525293D01*
X15810301Y-9525293D02*
X15800777Y-9563389D01*
X15800777Y-9563389D02*
X15791253Y-9582436D01*
X15791253Y-9582436D02*
X15781729Y-9591960D01*
X15781729Y-9591960D02*
X15762682Y-9601484D01*
X15762682Y-9601484D02*
X15743634Y-9601484D01*
X15743634Y-9601484D02*
X15724586Y-9591960D01*
X15724586Y-9591960D02*
X15715063Y-9582436D01*
X15715063Y-9582436D02*
X15705539Y-9563389D01*
X15705539Y-9563389D02*
X15696015Y-9525293D01*
X15696015Y-9525293D02*
X15696015Y-9477674D01*
X15696015Y-9477674D02*
X15705539Y-9439579D01*
X15705539Y-9439579D02*
X15715063Y-9420531D01*
X15715063Y-9420531D02*
X15724586Y-9411008D01*
X15724586Y-9411008D02*
X15743634Y-9401484D01*
X15896015Y-9582436D02*
X15905539Y-9591960D01*
X15905539Y-9591960D02*
X15896015Y-9601484D01*
X15896015Y-9601484D02*
X15886491Y-9591960D01*
X15886491Y-9591960D02*
X15896015Y-9582436D01*
X15896015Y-9582436D02*
X15896015Y-9601484D01*
X16029348Y-9401484D02*
X16048396Y-9401484D01*
X16048396Y-9401484D02*
X16067444Y-9411008D01*
X16067444Y-9411008D02*
X16076967Y-9420531D01*
X16076967Y-9420531D02*
X16086491Y-9439579D01*
X16086491Y-9439579D02*
X16096015Y-9477674D01*
X16096015Y-9477674D02*
X16096015Y-9525293D01*
X16096015Y-9525293D02*
X16086491Y-9563389D01*
X16086491Y-9563389D02*
X16076967Y-9582436D01*
X16076967Y-9582436D02*
X16067444Y-9591960D01*
X16067444Y-9591960D02*
X16048396Y-9601484D01*
X16048396Y-9601484D02*
X16029348Y-9601484D01*
X16029348Y-9601484D02*
X16010301Y-9591960D01*
X16010301Y-9591960D02*
X16000777Y-9582436D01*
X16000777Y-9582436D02*
X15991253Y-9563389D01*
X15991253Y-9563389D02*
X15981729Y-9525293D01*
X15981729Y-9525293D02*
X15981729Y-9477674D01*
X15981729Y-9477674D02*
X15991253Y-9439579D01*
X15991253Y-9439579D02*
X16000777Y-9420531D01*
X16000777Y-9420531D02*
X16010301Y-9411008D01*
X16010301Y-9411008D02*
X16029348Y-9401484D01*
X16276967Y-9401484D02*
X16181729Y-9401484D01*
X16181729Y-9401484D02*
X16172206Y-9496722D01*
X16172206Y-9496722D02*
X16181729Y-9487198D01*
X16181729Y-9487198D02*
X16200777Y-9477674D01*
X16200777Y-9477674D02*
X16248396Y-9477674D01*
X16248396Y-9477674D02*
X16267444Y-9487198D01*
X16267444Y-9487198D02*
X16276967Y-9496722D01*
X16276967Y-9496722D02*
X16286491Y-9515770D01*
X16286491Y-9515770D02*
X16286491Y-9563389D01*
X16286491Y-9563389D02*
X16276967Y-9582436D01*
X16276967Y-9582436D02*
X16267444Y-9591960D01*
X16267444Y-9591960D02*
X16248396Y-9601484D01*
X16248396Y-9601484D02*
X16200777Y-9601484D01*
X16200777Y-9601484D02*
X16181729Y-9591960D01*
X16181729Y-9591960D02*
X16172206Y-9582436D01*
X16381729Y-9601484D02*
X16419825Y-9601484D01*
X16419825Y-9601484D02*
X16438872Y-9591960D01*
X16438872Y-9591960D02*
X16448396Y-9582436D01*
X16448396Y-9582436D02*
X16467444Y-9553865D01*
X16467444Y-9553865D02*
X16476967Y-9515770D01*
X16476967Y-9515770D02*
X16476967Y-9439579D01*
X16476967Y-9439579D02*
X16467444Y-9420531D01*
X16467444Y-9420531D02*
X16457920Y-9411008D01*
X16457920Y-9411008D02*
X16438872Y-9401484D01*
X16438872Y-9401484D02*
X16400777Y-9401484D01*
X16400777Y-9401484D02*
X16381729Y-9411008D01*
X16381729Y-9411008D02*
X16372206Y-9420531D01*
X16372206Y-9420531D02*
X16362682Y-9439579D01*
X16362682Y-9439579D02*
X16362682Y-9487198D01*
X16362682Y-9487198D02*
X16372206Y-9506246D01*
X16372206Y-9506246D02*
X16381729Y-9515770D01*
X16381729Y-9515770D02*
X16400777Y-9525293D01*
X16400777Y-9525293D02*
X16438872Y-9525293D01*
X16438872Y-9525293D02*
X16457920Y-9515770D01*
X16457920Y-9515770D02*
X16467444Y-9506246D01*
X16467444Y-9506246D02*
X16476967Y-9487198D01*
X16667444Y-9601484D02*
X16553158Y-9601484D01*
X16610301Y-9601484D02*
X16610301Y-9401484D01*
X16610301Y-9401484D02*
X16591253Y-9430055D01*
X16591253Y-9430055D02*
X16572206Y-9449103D01*
X16572206Y-9449103D02*
X16553158Y-9458627D01*
X16743634Y-9401484D02*
X16743634Y-9439579D01*
X16819825Y-9401484D02*
X16819825Y-9439579D01*
X17115063Y-9677674D02*
X17105539Y-9668150D01*
X17105539Y-9668150D02*
X17086491Y-9639579D01*
X17086491Y-9639579D02*
X17076968Y-9620531D01*
X17076968Y-9620531D02*
X17067444Y-9591960D01*
X17067444Y-9591960D02*
X17057920Y-9544341D01*
X17057920Y-9544341D02*
X17057920Y-9506246D01*
X17057920Y-9506246D02*
X17067444Y-9458627D01*
X17067444Y-9458627D02*
X17076968Y-9430055D01*
X17076968Y-9430055D02*
X17086491Y-9411008D01*
X17086491Y-9411008D02*
X17105539Y-9382436D01*
X17105539Y-9382436D02*
X17115063Y-9372912D01*
X17181730Y-9420531D02*
X17191253Y-9411008D01*
X17191253Y-9411008D02*
X17210301Y-9401484D01*
X17210301Y-9401484D02*
X17257920Y-9401484D01*
X17257920Y-9401484D02*
X17276968Y-9411008D01*
X17276968Y-9411008D02*
X17286491Y-9420531D01*
X17286491Y-9420531D02*
X17296015Y-9439579D01*
X17296015Y-9439579D02*
X17296015Y-9458627D01*
X17296015Y-9458627D02*
X17286491Y-9487198D01*
X17286491Y-9487198D02*
X17172206Y-9601484D01*
X17172206Y-9601484D02*
X17296015Y-9601484D01*
X17534111Y-9601484D02*
X17534111Y-9401484D01*
X17619825Y-9601484D02*
X17619825Y-9496722D01*
X17619825Y-9496722D02*
X17610301Y-9477674D01*
X17610301Y-9477674D02*
X17591253Y-9468150D01*
X17591253Y-9468150D02*
X17562682Y-9468150D01*
X17562682Y-9468150D02*
X17543634Y-9477674D01*
X17543634Y-9477674D02*
X17534111Y-9487198D01*
X17743634Y-9601484D02*
X17724587Y-9591960D01*
X17724587Y-9591960D02*
X17715063Y-9582436D01*
X17715063Y-9582436D02*
X17705539Y-9563389D01*
X17705539Y-9563389D02*
X17705539Y-9506246D01*
X17705539Y-9506246D02*
X17715063Y-9487198D01*
X17715063Y-9487198D02*
X17724587Y-9477674D01*
X17724587Y-9477674D02*
X17743634Y-9468150D01*
X17743634Y-9468150D02*
X17772206Y-9468150D01*
X17772206Y-9468150D02*
X17791253Y-9477674D01*
X17791253Y-9477674D02*
X17800777Y-9487198D01*
X17800777Y-9487198D02*
X17810301Y-9506246D01*
X17810301Y-9506246D02*
X17810301Y-9563389D01*
X17810301Y-9563389D02*
X17800777Y-9582436D01*
X17800777Y-9582436D02*
X17791253Y-9591960D01*
X17791253Y-9591960D02*
X17772206Y-9601484D01*
X17772206Y-9601484D02*
X17743634Y-9601484D01*
X17924587Y-9601484D02*
X17905539Y-9591960D01*
X17905539Y-9591960D02*
X17896015Y-9572912D01*
X17896015Y-9572912D02*
X17896015Y-9401484D01*
X18076968Y-9591960D02*
X18057920Y-9601484D01*
X18057920Y-9601484D02*
X18019825Y-9601484D01*
X18019825Y-9601484D02*
X18000777Y-9591960D01*
X18000777Y-9591960D02*
X17991253Y-9572912D01*
X17991253Y-9572912D02*
X17991253Y-9496722D01*
X17991253Y-9496722D02*
X18000777Y-9477674D01*
X18000777Y-9477674D02*
X18019825Y-9468150D01*
X18019825Y-9468150D02*
X18057920Y-9468150D01*
X18057920Y-9468150D02*
X18076968Y-9477674D01*
X18076968Y-9477674D02*
X18086492Y-9496722D01*
X18086492Y-9496722D02*
X18086492Y-9515770D01*
X18086492Y-9515770D02*
X17991253Y-9534817D01*
X18162682Y-9591960D02*
X18181730Y-9601484D01*
X18181730Y-9601484D02*
X18219825Y-9601484D01*
X18219825Y-9601484D02*
X18238873Y-9591960D01*
X18238873Y-9591960D02*
X18248396Y-9572912D01*
X18248396Y-9572912D02*
X18248396Y-9563389D01*
X18248396Y-9563389D02*
X18238873Y-9544341D01*
X18238873Y-9544341D02*
X18219825Y-9534817D01*
X18219825Y-9534817D02*
X18191253Y-9534817D01*
X18191253Y-9534817D02*
X18172206Y-9525293D01*
X18172206Y-9525293D02*
X18162682Y-9506246D01*
X18162682Y-9506246D02*
X18162682Y-9496722D01*
X18162682Y-9496722D02*
X18172206Y-9477674D01*
X18172206Y-9477674D02*
X18191253Y-9468150D01*
X18191253Y-9468150D02*
X18219825Y-9468150D01*
X18219825Y-9468150D02*
X18238873Y-9477674D01*
X18315063Y-9677674D02*
X18324587Y-9668150D01*
X18324587Y-9668150D02*
X18343634Y-9639579D01*
X18343634Y-9639579D02*
X18353158Y-9620531D01*
X18353158Y-9620531D02*
X18362682Y-9591960D01*
X18362682Y-9591960D02*
X18372206Y-9544341D01*
X18372206Y-9544341D02*
X18372206Y-9506246D01*
X18372206Y-9506246D02*
X18362682Y-9458627D01*
X18362682Y-9458627D02*
X18353158Y-9430055D01*
X18353158Y-9430055D02*
X18343634Y-9411008D01*
X18343634Y-9411008D02*
X18324587Y-9382436D01*
X18324587Y-9382436D02*
X18315063Y-9372912D01*
D15*
X13450000Y-9870000D02*
X13540000Y-9780000D01*
X13450000Y-9690000D01*
X13360000Y-9780000D01*
X13450000Y-9870000D01*
D11*
X13905539Y-9871484D02*
X13791253Y-9871484D01*
X13848396Y-9871484D02*
X13848396Y-9671484D01*
X13848396Y-9671484D02*
X13829348Y-9700055D01*
X13829348Y-9700055D02*
X13810301Y-9719103D01*
X13810301Y-9719103D02*
X13791253Y-9728627D01*
X13991253Y-9852436D02*
X14000777Y-9861960D01*
X14000777Y-9861960D02*
X13991253Y-9871484D01*
X13991253Y-9871484D02*
X13981729Y-9861960D01*
X13981729Y-9861960D02*
X13991253Y-9852436D01*
X13991253Y-9852436D02*
X13991253Y-9871484D01*
X14115062Y-9757198D02*
X14096015Y-9747674D01*
X14096015Y-9747674D02*
X14086491Y-9738150D01*
X14086491Y-9738150D02*
X14076967Y-9719103D01*
X14076967Y-9719103D02*
X14076967Y-9709579D01*
X14076967Y-9709579D02*
X14086491Y-9690531D01*
X14086491Y-9690531D02*
X14096015Y-9681008D01*
X14096015Y-9681008D02*
X14115062Y-9671484D01*
X14115062Y-9671484D02*
X14153158Y-9671484D01*
X14153158Y-9671484D02*
X14172205Y-9681008D01*
X14172205Y-9681008D02*
X14181729Y-9690531D01*
X14181729Y-9690531D02*
X14191253Y-9709579D01*
X14191253Y-9709579D02*
X14191253Y-9719103D01*
X14191253Y-9719103D02*
X14181729Y-9738150D01*
X14181729Y-9738150D02*
X14172205Y-9747674D01*
X14172205Y-9747674D02*
X14153158Y-9757198D01*
X14153158Y-9757198D02*
X14115062Y-9757198D01*
X14115062Y-9757198D02*
X14096015Y-9766722D01*
X14096015Y-9766722D02*
X14086491Y-9776246D01*
X14086491Y-9776246D02*
X14076967Y-9795293D01*
X14076967Y-9795293D02*
X14076967Y-9833389D01*
X14076967Y-9833389D02*
X14086491Y-9852436D01*
X14086491Y-9852436D02*
X14096015Y-9861960D01*
X14096015Y-9861960D02*
X14115062Y-9871484D01*
X14115062Y-9871484D02*
X14153158Y-9871484D01*
X14153158Y-9871484D02*
X14172205Y-9861960D01*
X14172205Y-9861960D02*
X14181729Y-9852436D01*
X14181729Y-9852436D02*
X14191253Y-9833389D01*
X14191253Y-9833389D02*
X14191253Y-9795293D01*
X14191253Y-9795293D02*
X14181729Y-9776246D01*
X14181729Y-9776246D02*
X14172205Y-9766722D01*
X14172205Y-9766722D02*
X14153158Y-9757198D01*
X14315062Y-9671484D02*
X14334110Y-9671484D01*
X14334110Y-9671484D02*
X14353158Y-9681008D01*
X14353158Y-9681008D02*
X14362682Y-9690531D01*
X14362682Y-9690531D02*
X14372205Y-9709579D01*
X14372205Y-9709579D02*
X14381729Y-9747674D01*
X14381729Y-9747674D02*
X14381729Y-9795293D01*
X14381729Y-9795293D02*
X14372205Y-9833389D01*
X14372205Y-9833389D02*
X14362682Y-9852436D01*
X14362682Y-9852436D02*
X14353158Y-9861960D01*
X14353158Y-9861960D02*
X14334110Y-9871484D01*
X14334110Y-9871484D02*
X14315062Y-9871484D01*
X14315062Y-9871484D02*
X14296015Y-9861960D01*
X14296015Y-9861960D02*
X14286491Y-9852436D01*
X14286491Y-9852436D02*
X14276967Y-9833389D01*
X14276967Y-9833389D02*
X14267443Y-9795293D01*
X14267443Y-9795293D02*
X14267443Y-9747674D01*
X14267443Y-9747674D02*
X14276967Y-9709579D01*
X14276967Y-9709579D02*
X14286491Y-9690531D01*
X14286491Y-9690531D02*
X14296015Y-9681008D01*
X14296015Y-9681008D02*
X14315062Y-9671484D01*
X14505539Y-9671484D02*
X14524586Y-9671484D01*
X14524586Y-9671484D02*
X14543634Y-9681008D01*
X14543634Y-9681008D02*
X14553158Y-9690531D01*
X14553158Y-9690531D02*
X14562682Y-9709579D01*
X14562682Y-9709579D02*
X14572205Y-9747674D01*
X14572205Y-9747674D02*
X14572205Y-9795293D01*
X14572205Y-9795293D02*
X14562682Y-9833389D01*
X14562682Y-9833389D02*
X14553158Y-9852436D01*
X14553158Y-9852436D02*
X14543634Y-9861960D01*
X14543634Y-9861960D02*
X14524586Y-9871484D01*
X14524586Y-9871484D02*
X14505539Y-9871484D01*
X14505539Y-9871484D02*
X14486491Y-9861960D01*
X14486491Y-9861960D02*
X14476967Y-9852436D01*
X14476967Y-9852436D02*
X14467443Y-9833389D01*
X14467443Y-9833389D02*
X14457920Y-9795293D01*
X14457920Y-9795293D02*
X14457920Y-9747674D01*
X14457920Y-9747674D02*
X14467443Y-9709579D01*
X14467443Y-9709579D02*
X14476967Y-9690531D01*
X14476967Y-9690531D02*
X14486491Y-9681008D01*
X14486491Y-9681008D02*
X14505539Y-9671484D01*
X14657920Y-9871484D02*
X14657920Y-9738150D01*
X14657920Y-9757198D02*
X14667443Y-9747674D01*
X14667443Y-9747674D02*
X14686491Y-9738150D01*
X14686491Y-9738150D02*
X14715063Y-9738150D01*
X14715063Y-9738150D02*
X14734110Y-9747674D01*
X14734110Y-9747674D02*
X14743634Y-9766722D01*
X14743634Y-9766722D02*
X14743634Y-9871484D01*
X14743634Y-9766722D02*
X14753158Y-9747674D01*
X14753158Y-9747674D02*
X14772205Y-9738150D01*
X14772205Y-9738150D02*
X14800777Y-9738150D01*
X14800777Y-9738150D02*
X14819824Y-9747674D01*
X14819824Y-9747674D02*
X14829348Y-9766722D01*
X14829348Y-9766722D02*
X14829348Y-9871484D01*
X14924586Y-9871484D02*
X14924586Y-9738150D01*
X14924586Y-9757198D02*
X14934110Y-9747674D01*
X14934110Y-9747674D02*
X14953158Y-9738150D01*
X14953158Y-9738150D02*
X14981729Y-9738150D01*
X14981729Y-9738150D02*
X15000777Y-9747674D01*
X15000777Y-9747674D02*
X15010301Y-9766722D01*
X15010301Y-9766722D02*
X15010301Y-9871484D01*
X15010301Y-9766722D02*
X15019824Y-9747674D01*
X15019824Y-9747674D02*
X15038872Y-9738150D01*
X15038872Y-9738150D02*
X15067443Y-9738150D01*
X15067443Y-9738150D02*
X15086491Y-9747674D01*
X15086491Y-9747674D02*
X15096015Y-9766722D01*
X15096015Y-9766722D02*
X15096015Y-9871484D01*
X15486491Y-9661960D02*
X15315063Y-9919103D01*
X15743634Y-9671484D02*
X15762682Y-9671484D01*
X15762682Y-9671484D02*
X15781729Y-9681008D01*
X15781729Y-9681008D02*
X15791253Y-9690531D01*
X15791253Y-9690531D02*
X15800777Y-9709579D01*
X15800777Y-9709579D02*
X15810301Y-9747674D01*
X15810301Y-9747674D02*
X15810301Y-9795293D01*
X15810301Y-9795293D02*
X15800777Y-9833389D01*
X15800777Y-9833389D02*
X15791253Y-9852436D01*
X15791253Y-9852436D02*
X15781729Y-9861960D01*
X15781729Y-9861960D02*
X15762682Y-9871484D01*
X15762682Y-9871484D02*
X15743634Y-9871484D01*
X15743634Y-9871484D02*
X15724586Y-9861960D01*
X15724586Y-9861960D02*
X15715063Y-9852436D01*
X15715063Y-9852436D02*
X15705539Y-9833389D01*
X15705539Y-9833389D02*
X15696015Y-9795293D01*
X15696015Y-9795293D02*
X15696015Y-9747674D01*
X15696015Y-9747674D02*
X15705539Y-9709579D01*
X15705539Y-9709579D02*
X15715063Y-9690531D01*
X15715063Y-9690531D02*
X15724586Y-9681008D01*
X15724586Y-9681008D02*
X15743634Y-9671484D01*
X15896015Y-9852436D02*
X15905539Y-9861960D01*
X15905539Y-9861960D02*
X15896015Y-9871484D01*
X15896015Y-9871484D02*
X15886491Y-9861960D01*
X15886491Y-9861960D02*
X15896015Y-9852436D01*
X15896015Y-9852436D02*
X15896015Y-9871484D01*
X16029348Y-9671484D02*
X16048396Y-9671484D01*
X16048396Y-9671484D02*
X16067444Y-9681008D01*
X16067444Y-9681008D02*
X16076967Y-9690531D01*
X16076967Y-9690531D02*
X16086491Y-9709579D01*
X16086491Y-9709579D02*
X16096015Y-9747674D01*
X16096015Y-9747674D02*
X16096015Y-9795293D01*
X16096015Y-9795293D02*
X16086491Y-9833389D01*
X16086491Y-9833389D02*
X16076967Y-9852436D01*
X16076967Y-9852436D02*
X16067444Y-9861960D01*
X16067444Y-9861960D02*
X16048396Y-9871484D01*
X16048396Y-9871484D02*
X16029348Y-9871484D01*
X16029348Y-9871484D02*
X16010301Y-9861960D01*
X16010301Y-9861960D02*
X16000777Y-9852436D01*
X16000777Y-9852436D02*
X15991253Y-9833389D01*
X15991253Y-9833389D02*
X15981729Y-9795293D01*
X15981729Y-9795293D02*
X15981729Y-9747674D01*
X15981729Y-9747674D02*
X15991253Y-9709579D01*
X15991253Y-9709579D02*
X16000777Y-9690531D01*
X16000777Y-9690531D02*
X16010301Y-9681008D01*
X16010301Y-9681008D02*
X16029348Y-9671484D01*
X16162682Y-9671484D02*
X16296015Y-9671484D01*
X16296015Y-9671484D02*
X16210301Y-9871484D01*
X16410301Y-9671484D02*
X16429348Y-9671484D01*
X16429348Y-9671484D02*
X16448396Y-9681008D01*
X16448396Y-9681008D02*
X16457920Y-9690531D01*
X16457920Y-9690531D02*
X16467444Y-9709579D01*
X16467444Y-9709579D02*
X16476967Y-9747674D01*
X16476967Y-9747674D02*
X16476967Y-9795293D01*
X16476967Y-9795293D02*
X16467444Y-9833389D01*
X16467444Y-9833389D02*
X16457920Y-9852436D01*
X16457920Y-9852436D02*
X16448396Y-9861960D01*
X16448396Y-9861960D02*
X16429348Y-9871484D01*
X16429348Y-9871484D02*
X16410301Y-9871484D01*
X16410301Y-9871484D02*
X16391253Y-9861960D01*
X16391253Y-9861960D02*
X16381729Y-9852436D01*
X16381729Y-9852436D02*
X16372206Y-9833389D01*
X16372206Y-9833389D02*
X16362682Y-9795293D01*
X16362682Y-9795293D02*
X16362682Y-9747674D01*
X16362682Y-9747674D02*
X16372206Y-9709579D01*
X16372206Y-9709579D02*
X16381729Y-9690531D01*
X16381729Y-9690531D02*
X16391253Y-9681008D01*
X16391253Y-9681008D02*
X16410301Y-9671484D01*
X16572206Y-9871484D02*
X16610301Y-9871484D01*
X16610301Y-9871484D02*
X16629348Y-9861960D01*
X16629348Y-9861960D02*
X16638872Y-9852436D01*
X16638872Y-9852436D02*
X16657920Y-9823865D01*
X16657920Y-9823865D02*
X16667444Y-9785770D01*
X16667444Y-9785770D02*
X16667444Y-9709579D01*
X16667444Y-9709579D02*
X16657920Y-9690531D01*
X16657920Y-9690531D02*
X16648396Y-9681008D01*
X16648396Y-9681008D02*
X16629348Y-9671484D01*
X16629348Y-9671484D02*
X16591253Y-9671484D01*
X16591253Y-9671484D02*
X16572206Y-9681008D01*
X16572206Y-9681008D02*
X16562682Y-9690531D01*
X16562682Y-9690531D02*
X16553158Y-9709579D01*
X16553158Y-9709579D02*
X16553158Y-9757198D01*
X16553158Y-9757198D02*
X16562682Y-9776246D01*
X16562682Y-9776246D02*
X16572206Y-9785770D01*
X16572206Y-9785770D02*
X16591253Y-9795293D01*
X16591253Y-9795293D02*
X16629348Y-9795293D01*
X16629348Y-9795293D02*
X16648396Y-9785770D01*
X16648396Y-9785770D02*
X16657920Y-9776246D01*
X16657920Y-9776246D02*
X16667444Y-9757198D01*
X16743634Y-9671484D02*
X16743634Y-9709579D01*
X16819825Y-9671484D02*
X16819825Y-9709579D01*
X17115063Y-9947674D02*
X17105539Y-9938150D01*
X17105539Y-9938150D02*
X17086491Y-9909579D01*
X17086491Y-9909579D02*
X17076968Y-9890531D01*
X17076968Y-9890531D02*
X17067444Y-9861960D01*
X17067444Y-9861960D02*
X17057920Y-9814341D01*
X17057920Y-9814341D02*
X17057920Y-9776246D01*
X17057920Y-9776246D02*
X17067444Y-9728627D01*
X17067444Y-9728627D02*
X17076968Y-9700055D01*
X17076968Y-9700055D02*
X17086491Y-9681008D01*
X17086491Y-9681008D02*
X17105539Y-9652436D01*
X17105539Y-9652436D02*
X17115063Y-9642912D01*
X17229349Y-9671484D02*
X17248396Y-9671484D01*
X17248396Y-9671484D02*
X17267444Y-9681008D01*
X17267444Y-9681008D02*
X17276968Y-9690531D01*
X17276968Y-9690531D02*
X17286491Y-9709579D01*
X17286491Y-9709579D02*
X17296015Y-9747674D01*
X17296015Y-9747674D02*
X17296015Y-9795293D01*
X17296015Y-9795293D02*
X17286491Y-9833389D01*
X17286491Y-9833389D02*
X17276968Y-9852436D01*
X17276968Y-9852436D02*
X17267444Y-9861960D01*
X17267444Y-9861960D02*
X17248396Y-9871484D01*
X17248396Y-9871484D02*
X17229349Y-9871484D01*
X17229349Y-9871484D02*
X17210301Y-9861960D01*
X17210301Y-9861960D02*
X17200777Y-9852436D01*
X17200777Y-9852436D02*
X17191253Y-9833389D01*
X17191253Y-9833389D02*
X17181730Y-9795293D01*
X17181730Y-9795293D02*
X17181730Y-9747674D01*
X17181730Y-9747674D02*
X17191253Y-9709579D01*
X17191253Y-9709579D02*
X17200777Y-9690531D01*
X17200777Y-9690531D02*
X17210301Y-9681008D01*
X17210301Y-9681008D02*
X17229349Y-9671484D01*
X17534111Y-9871484D02*
X17534111Y-9671484D01*
X17619825Y-9871484D02*
X17619825Y-9766722D01*
X17619825Y-9766722D02*
X17610301Y-9747674D01*
X17610301Y-9747674D02*
X17591253Y-9738150D01*
X17591253Y-9738150D02*
X17562682Y-9738150D01*
X17562682Y-9738150D02*
X17543634Y-9747674D01*
X17543634Y-9747674D02*
X17534111Y-9757198D01*
X17743634Y-9871484D02*
X17724587Y-9861960D01*
X17724587Y-9861960D02*
X17715063Y-9852436D01*
X17715063Y-9852436D02*
X17705539Y-9833389D01*
X17705539Y-9833389D02*
X17705539Y-9776246D01*
X17705539Y-9776246D02*
X17715063Y-9757198D01*
X17715063Y-9757198D02*
X17724587Y-9747674D01*
X17724587Y-9747674D02*
X17743634Y-9738150D01*
X17743634Y-9738150D02*
X17772206Y-9738150D01*
X17772206Y-9738150D02*
X17791253Y-9747674D01*
X17791253Y-9747674D02*
X17800777Y-9757198D01*
X17800777Y-9757198D02*
X17810301Y-9776246D01*
X17810301Y-9776246D02*
X17810301Y-9833389D01*
X17810301Y-9833389D02*
X17800777Y-9852436D01*
X17800777Y-9852436D02*
X17791253Y-9861960D01*
X17791253Y-9861960D02*
X17772206Y-9871484D01*
X17772206Y-9871484D02*
X17743634Y-9871484D01*
X17924587Y-9871484D02*
X17905539Y-9861960D01*
X17905539Y-9861960D02*
X17896015Y-9842912D01*
X17896015Y-9842912D02*
X17896015Y-9671484D01*
X18076968Y-9861960D02*
X18057920Y-9871484D01*
X18057920Y-9871484D02*
X18019825Y-9871484D01*
X18019825Y-9871484D02*
X18000777Y-9861960D01*
X18000777Y-9861960D02*
X17991253Y-9842912D01*
X17991253Y-9842912D02*
X17991253Y-9766722D01*
X17991253Y-9766722D02*
X18000777Y-9747674D01*
X18000777Y-9747674D02*
X18019825Y-9738150D01*
X18019825Y-9738150D02*
X18057920Y-9738150D01*
X18057920Y-9738150D02*
X18076968Y-9747674D01*
X18076968Y-9747674D02*
X18086492Y-9766722D01*
X18086492Y-9766722D02*
X18086492Y-9785770D01*
X18086492Y-9785770D02*
X17991253Y-9804817D01*
X18162682Y-9861960D02*
X18181730Y-9871484D01*
X18181730Y-9871484D02*
X18219825Y-9871484D01*
X18219825Y-9871484D02*
X18238873Y-9861960D01*
X18238873Y-9861960D02*
X18248396Y-9842912D01*
X18248396Y-9842912D02*
X18248396Y-9833389D01*
X18248396Y-9833389D02*
X18238873Y-9814341D01*
X18238873Y-9814341D02*
X18219825Y-9804817D01*
X18219825Y-9804817D02*
X18191253Y-9804817D01*
X18191253Y-9804817D02*
X18172206Y-9795293D01*
X18172206Y-9795293D02*
X18162682Y-9776246D01*
X18162682Y-9776246D02*
X18162682Y-9766722D01*
X18162682Y-9766722D02*
X18172206Y-9747674D01*
X18172206Y-9747674D02*
X18191253Y-9738150D01*
X18191253Y-9738150D02*
X18219825Y-9738150D01*
X18219825Y-9738150D02*
X18238873Y-9747674D01*
X18486492Y-9795293D02*
X18638873Y-9795293D01*
X18562682Y-9871484D02*
X18562682Y-9719103D01*
X18876968Y-9690531D02*
X18886492Y-9681008D01*
X18886492Y-9681008D02*
X18905539Y-9671484D01*
X18905539Y-9671484D02*
X18953158Y-9671484D01*
X18953158Y-9671484D02*
X18972206Y-9681008D01*
X18972206Y-9681008D02*
X18981730Y-9690531D01*
X18981730Y-9690531D02*
X18991254Y-9709579D01*
X18991254Y-9709579D02*
X18991254Y-9728627D01*
X18991254Y-9728627D02*
X18981730Y-9757198D01*
X18981730Y-9757198D02*
X18867444Y-9871484D01*
X18867444Y-9871484D02*
X18991254Y-9871484D01*
X19219825Y-9861960D02*
X19238873Y-9871484D01*
X19238873Y-9871484D02*
X19276968Y-9871484D01*
X19276968Y-9871484D02*
X19296016Y-9861960D01*
X19296016Y-9861960D02*
X19305539Y-9842912D01*
X19305539Y-9842912D02*
X19305539Y-9833389D01*
X19305539Y-9833389D02*
X19296016Y-9814341D01*
X19296016Y-9814341D02*
X19276968Y-9804817D01*
X19276968Y-9804817D02*
X19248396Y-9804817D01*
X19248396Y-9804817D02*
X19229349Y-9795293D01*
X19229349Y-9795293D02*
X19219825Y-9776246D01*
X19219825Y-9776246D02*
X19219825Y-9766722D01*
X19219825Y-9766722D02*
X19229349Y-9747674D01*
X19229349Y-9747674D02*
X19248396Y-9738150D01*
X19248396Y-9738150D02*
X19276968Y-9738150D01*
X19276968Y-9738150D02*
X19296016Y-9747674D01*
X19419825Y-9871484D02*
X19400777Y-9861960D01*
X19400777Y-9861960D02*
X19391254Y-9842912D01*
X19391254Y-9842912D02*
X19391254Y-9671484D01*
X19524587Y-9871484D02*
X19505539Y-9861960D01*
X19505539Y-9861960D02*
X19496016Y-9852436D01*
X19496016Y-9852436D02*
X19486492Y-9833389D01*
X19486492Y-9833389D02*
X19486492Y-9776246D01*
X19486492Y-9776246D02*
X19496016Y-9757198D01*
X19496016Y-9757198D02*
X19505539Y-9747674D01*
X19505539Y-9747674D02*
X19524587Y-9738150D01*
X19524587Y-9738150D02*
X19553158Y-9738150D01*
X19553158Y-9738150D02*
X19572206Y-9747674D01*
X19572206Y-9747674D02*
X19581730Y-9757198D01*
X19581730Y-9757198D02*
X19591254Y-9776246D01*
X19591254Y-9776246D02*
X19591254Y-9833389D01*
X19591254Y-9833389D02*
X19581730Y-9852436D01*
X19581730Y-9852436D02*
X19572206Y-9861960D01*
X19572206Y-9861960D02*
X19553158Y-9871484D01*
X19553158Y-9871484D02*
X19524587Y-9871484D01*
X19648397Y-9738150D02*
X19724587Y-9738150D01*
X19676968Y-9671484D02*
X19676968Y-9842912D01*
X19676968Y-9842912D02*
X19686492Y-9861960D01*
X19686492Y-9861960D02*
X19705539Y-9871484D01*
X19705539Y-9871484D02*
X19724587Y-9871484D01*
X19781730Y-9861960D02*
X19800777Y-9871484D01*
X19800777Y-9871484D02*
X19838873Y-9871484D01*
X19838873Y-9871484D02*
X19857920Y-9861960D01*
X19857920Y-9861960D02*
X19867444Y-9842912D01*
X19867444Y-9842912D02*
X19867444Y-9833389D01*
X19867444Y-9833389D02*
X19857920Y-9814341D01*
X19857920Y-9814341D02*
X19838873Y-9804817D01*
X19838873Y-9804817D02*
X19810301Y-9804817D01*
X19810301Y-9804817D02*
X19791254Y-9795293D01*
X19791254Y-9795293D02*
X19781730Y-9776246D01*
X19781730Y-9776246D02*
X19781730Y-9766722D01*
X19781730Y-9766722D02*
X19791254Y-9747674D01*
X19791254Y-9747674D02*
X19810301Y-9738150D01*
X19810301Y-9738150D02*
X19838873Y-9738150D01*
X19838873Y-9738150D02*
X19857920Y-9747674D01*
X19934111Y-9947674D02*
X19943635Y-9938150D01*
X19943635Y-9938150D02*
X19962682Y-9909579D01*
X19962682Y-9909579D02*
X19972206Y-9890531D01*
X19972206Y-9890531D02*
X19981730Y-9861960D01*
X19981730Y-9861960D02*
X19991254Y-9814341D01*
X19991254Y-9814341D02*
X19991254Y-9776246D01*
X19991254Y-9776246D02*
X19981730Y-9728627D01*
X19981730Y-9728627D02*
X19972206Y-9700055D01*
X19972206Y-9700055D02*
X19962682Y-9681008D01*
X19962682Y-9681008D02*
X19943635Y-9652436D01*
X19943635Y-9652436D02*
X19934111Y-9642912D01*
M02*
